<?xml version="1.0" encoding="UTF-8"?> <svg xmlns="http://www.w3.org/2000/svg" width="589" height="566"><defs><linearGradient x1="59.267%" y1="-4.816%" x2="47.381%" y2="61.778%" id="a"><stop stop-color="#1E3679" offset="0%"></stop><stop stop-color="#3F5EB2" offset="100%"></stop></linearGradient><linearGradient x1="2.517%" y1="50.002%" x2="78.065%" y2="50.002%" id="b"><stop stop-color="#1E3679" offset="0%"></stop><stop stop-color="#223A7F" offset="24%"></stop><stop stop-color="#2C4791" offset="57%"></stop><stop stop-color="#3D5BAE" offset="95%"></stop><stop stop-color="#3F5EB2" offset="100%"></stop></linearGradient><linearGradient x1="77.738%" y1="77.367%" x2="-4.389%" y2="28.64%" id="c"><stop stop-color="#1E3679" offset="0%"></stop><stop stop-color="#3F5EB2" offset="100%"></stop></linearGradient><linearGradient x1="-.043%" y1="50%" x2="100.019%" y2="50%" id="d"><stop stop-color="#1E3679" offset="0%"></stop><stop stop-color="#223A7F" offset="24%"></stop><stop stop-color="#2C4791" offset="57%"></stop><stop stop-color="#3D5BAE" offset="95%"></stop><stop stop-color="#3F5EB2" offset="100%"></stop></linearGradient><linearGradient x1=".01%" y1="49.997%" x2="99.99%" y2="49.997%" id="e"><stop stop-color="#2B67B0" offset="2%"></stop><stop stop-color="#45EBA5" offset="100%"></stop></linearGradient><linearGradient x1="66.168%" y1="67.561%" x2="31.862%" y2="30.307%" id="f"><stop stop-color="#59BDEF" offset="0%"></stop><stop stop-color="#7BDAFF" offset="100%"></stop></linearGradient><linearGradient x1=".01%" y1="50.001%" x2="99.99%" y2="50.001%" id="g"><stop stop-color="#1E3679" offset="0%"></stop><stop stop-color="#223A7F" offset="24%"></stop><stop stop-color="#2C4791" offset="57%"></stop><stop stop-color="#3D5BAE" offset="95%"></stop><stop stop-color="#3F5EB2" offset="100%"></stop></linearGradient><linearGradient x1="69.364%" y1="70.92%" x2="12.132%" y2="26.023%" id="h"><stop stop-color="#59BDEF" offset="0%"></stop><stop stop-color="#7BDAFF" offset="100%"></stop></linearGradient><linearGradient x1="63.668%" y1="56.441%" x2="9.108%" y2="30.742%" id="i"><stop stop-color="#2B67B0" offset="2%"></stop><stop stop-color="#45EBA5" offset="100%"></stop></linearGradient><linearGradient x1="157.973%" y1="50%" x2="16.953%" y2="50%" id="j"><stop stop-color="#191EAB" offset="66%"></stop><stop stop-color="#1D28B8" offset="71%"></stop><stop stop-color="#2641DC" offset="81%"></stop><stop stop-color="#2E57FA" offset="88%"></stop></linearGradient><linearGradient x1="44.207%" y1="45.207%" x2="71.151%" y2="67.528%" id="k"><stop stop-color="#1E3679" offset="0%"></stop><stop stop-color="#3F5EB2" offset="100%"></stop></linearGradient><linearGradient x1="0%" y1="50%" x2="100%" y2="50%" id="l"><stop stop-color="#1E3679" offset="0%"></stop><stop stop-color="#223A7F" offset="24%"></stop><stop stop-color="#2C4791" offset="57%"></stop><stop stop-color="#3D5BAE" offset="95%"></stop><stop stop-color="#3F5EB2" offset="100%"></stop></linearGradient><linearGradient x1="0%" y1="50%" x2="100%" y2="50%" id="m"><stop stop-color="#1E3679" offset="0%"></stop><stop stop-color="#223A7F" offset="24%"></stop><stop stop-color="#2C4791" offset="57%"></stop><stop stop-color="#3D5BAE" offset="95%"></stop><stop stop-color="#3F5EB2" offset="100%"></stop></linearGradient><linearGradient x1="63.668%" y1="56.438%" x2="9.108%" y2="30.746%" id="n"><stop stop-color="#59BDEF" offset="0%"></stop><stop stop-color="#7BDAFF" offset="100%"></stop></linearGradient><linearGradient x1="63.668%" y1="56.438%" x2="9.108%" y2="30.746%" id="o"><stop stop-color="#2B67B0" offset="2%"></stop><stop stop-color="#45EBA5" offset="100%"></stop></linearGradient><linearGradient x1="157.973%" y1="50.01%" x2="16.953%" y2="50.01%" id="p"><stop stop-color="#191EAB" offset="66%"></stop><stop stop-color="#1D28B8" offset="71%"></stop><stop stop-color="#2641DC" offset="81%"></stop><stop stop-color="#2E57FA" offset="88%"></stop></linearGradient><linearGradient x1="43.409%" y1="47.669%" x2="-41.958%" y2="17.592%" id="q"><stop stop-color="#2B67B0" offset="2%"></stop><stop stop-color="#45EBA5" offset="100%"></stop></linearGradient><linearGradient x1="0%" y1="50%" x2="100%" y2="50%" id="r"><stop stop-color="#1E3679" offset="0%"></stop><stop stop-color="#223A7F" offset="24%"></stop><stop stop-color="#2C4791" offset="57%"></stop><stop stop-color="#3D5BAE" offset="95%"></stop><stop stop-color="#3F5EB2" offset="100%"></stop></linearGradient><linearGradient x1="0%" y1="50.014%" x2="100%" y2="50.014%" id="s"><stop stop-color="#1E3679" offset="0%"></stop><stop stop-color="#223A7F" offset="24%"></stop><stop stop-color="#2C4791" offset="57%"></stop><stop stop-color="#3D5BAE" offset="95%"></stop><stop stop-color="#3F5EB2" offset="100%"></stop></linearGradient><linearGradient x1="0%" y1="50%" x2="100%" y2="50%" id="t"><stop stop-color="#3A9BD5" offset="0%"></stop><stop stop-color="#2573BA" offset="100%"></stop></linearGradient><linearGradient x1="43.409%" y1="47.676%" x2="-41.958%" y2="17.592%" id="u"><stop stop-color="#2B67B0" offset="2%"></stop><stop stop-color="#45EBA5" offset="100%"></stop></linearGradient><linearGradient x1="0%" y1="49.986%" x2="100%" y2="49.986%" id="v"><stop stop-color="#1E3679" offset="0%"></stop><stop stop-color="#223A7F" offset="24%"></stop><stop stop-color="#2C4791" offset="57%"></stop><stop stop-color="#3D5BAE" offset="95%"></stop><stop stop-color="#3F5EB2" offset="100%"></stop></linearGradient><linearGradient x1="0%" y1="50%" x2="100.009%" y2="50%" id="w"><stop stop-color="#1E3679" offset="0%"></stop><stop stop-color="#223A7F" offset="24%"></stop><stop stop-color="#2C4791" offset="57%"></stop><stop stop-color="#3D5BAE" offset="95%"></stop><stop stop-color="#3F5EB2" offset="100%"></stop></linearGradient><linearGradient x1="93.515%" y1="75.691%" x2="7.952%" y2="33.3%" id="x"><stop stop-color="#2B67B0" offset="2%"></stop><stop stop-color="#45EBA5" offset="100%"></stop></linearGradient><linearGradient x1="0%" y1="50.449%" x2="100%" y2="50.449%" id="y"><stop stop-color="#2B67B0" offset="2%"></stop><stop stop-color="#45EBA5" offset="100%"></stop></linearGradient><linearGradient x1="3.792%" y1="36.729%" x2="104.262%" y2="77.03%" id="z"><stop stop-color="#1E3679" offset="0%"></stop><stop stop-color="#3F5EB2" offset="100%"></stop></linearGradient><linearGradient x1="0%" y1="50%" x2="100%" y2="50%" id="A"><stop stop-color="#1E3679" offset="0%"></stop><stop stop-color="#223A7F" offset="24%"></stop><stop stop-color="#2C4791" offset="57%"></stop><stop stop-color="#3D5BAE" offset="95%"></stop><stop stop-color="#3F5EB2" offset="100%"></stop></linearGradient><linearGradient x1="-.131%" y1="49.972%" x2="99.869%" y2="49.972%" id="B"><stop stop-color="#191EAB" offset="0%"></stop><stop stop-color="#294AE8" offset="78%"></stop><stop stop-color="#2E57FA" offset="100%"></stop></linearGradient><linearGradient x1="-.131%" y1="49.965%" x2="99.869%" y2="49.965%" id="C"><stop stop-color="#191EAB" offset="0%"></stop><stop stop-color="#294AE8" offset="78%"></stop><stop stop-color="#2E57FA" offset="100%"></stop></linearGradient><linearGradient x1="100.008%" y1="50.003%" x2="-.008%" y2="50.003%" id="D"><stop stop-color="#191EAB" offset="41%"></stop><stop stop-color="#1B22B1" offset="42%"></stop><stop stop-color="#2948E6" offset="52%"></stop><stop stop-color="#2E57FA" offset="57%"></stop></linearGradient><linearGradient x1="0%" y1="50%" x2="100%" y2="50%" id="E"><stop stop-color="#191EAB" offset="9%"></stop><stop stop-color="#1B22B1" offset="16%"></stop><stop stop-color="#2948E6" offset="72%"></stop><stop stop-color="#2E57FA" offset="100%"></stop></linearGradient><linearGradient x1="0%" y1="49.985%" x2="100%" y2="49.985%" id="F"><stop stop-color="#191EAB" offset="9%"></stop><stop stop-color="#1B22B1" offset="16%"></stop><stop stop-color="#2948E6" offset="72%"></stop><stop stop-color="#2E57FA" offset="100%"></stop></linearGradient><linearGradient x1="-.047%" y1="49.685%" x2="99.765%" y2="49.685%" id="G"><stop stop-color="#191EAB" offset="9%"></stop><stop stop-color="#1B22B1" offset="16%"></stop><stop stop-color="#2948E6" offset="72%"></stop><stop stop-color="#2E57FA" offset="100%"></stop></linearGradient><linearGradient x1="0%" y1="50.02%" x2="100.081%" y2="50.02%" id="H"><stop stop-color="#191EAB" offset="9%"></stop><stop stop-color="#1B22B1" offset="16%"></stop><stop stop-color="#2948E6" offset="72%"></stop><stop stop-color="#2E57FA" offset="100%"></stop></linearGradient><linearGradient x1="18%" y1="50%" x2="82%" y2="50%" id="I"><stop stop-color="#2B67B0" offset="2%"></stop><stop stop-color="#45EBA5" offset="100%"></stop></linearGradient><linearGradient x1="0%" y1="50%" x2="100%" y2="50%" id="J"><stop stop-color="#2B67B0" offset="2%"></stop><stop stop-color="#45EBA5" offset="100%"></stop></linearGradient><linearGradient x1="0%" y1="49.541%" x2="100%" y2="49.541%" id="K"><stop stop-color="#2B67B0" offset="2%"></stop><stop stop-color="#45EBA5" offset="100%"></stop></linearGradient><linearGradient x1="49.831%" y1="0%" x2="49.831%" y2="100.007%" id="L"><stop stop-color="#45EBA5" offset="0%"></stop><stop stop-color="#44E8A5" offset="22%"></stop><stop stop-color="#42DEA6" offset="39%"></stop><stop stop-color="#3FCEA7" offset="55%"></stop><stop stop-color="#3BB6A9" offset="69%"></stop><stop stop-color="#3598AC" offset="83%"></stop><stop stop-color="#2D74AF" offset="96%"></stop><stop stop-color="#2B67B0" offset="100%"></stop></linearGradient><linearGradient x1="50.04%" y1="0%" x2="50.04%" y2="99.933%" id="M"><stop stop-color="#45EBA5" offset="0%"></stop><stop stop-color="#44E8A5" offset="22%"></stop><stop stop-color="#42DEA6" offset="39%"></stop><stop stop-color="#3FCEA7" offset="55%"></stop><stop stop-color="#3BB6A9" offset="69%"></stop><stop stop-color="#3598AC" offset="83%"></stop><stop stop-color="#2D74AF" offset="96%"></stop><stop stop-color="#2B67B0" offset="100%"></stop></linearGradient><linearGradient x1="50.395%" y1="100.011%" x2="47.81%" y2="-.704%" id="N"><stop stop-color="#45EBA5" offset="0%"></stop><stop stop-color="#5EEEB1" offset="9%"></stop><stop stop-color="#97F4CD" offset="33%"></stop><stop stop-color="#C4F9E2" offset="54%"></stop><stop stop-color="#E4FCF2" offset="73%"></stop><stop stop-color="#F8FEFC" offset="89%"></stop><stop stop-color="#FFF" offset="100%"></stop></linearGradient><linearGradient x1="100%" y1="49.998%" x2="0%" y2="49.998%" id="O"><stop stop-color="#191EAB" offset="50%"></stop><stop stop-color="#1B22B1" offset="56%"></stop><stop stop-color="#1F2FC3" offset="64%"></stop><stop stop-color="#2744DF" offset="74%"></stop><stop stop-color="#2E57FA" offset="81%"></stop></linearGradient><linearGradient x1="100%" y1="49.993%" x2="0%" y2="49.993%" id="P"><stop stop-color="#191EAB" offset="0%"></stop><stop stop-color="#1A20AE" offset="31%"></stop><stop stop-color="#1C26B7" offset="51%"></stop><stop stop-color="#2031C6" offset="68%"></stop><stop stop-color="#2641DB" offset="84%"></stop><stop stop-color="#2D54F6" offset="98%"></stop><stop stop-color="#2E57FA" offset="100%"></stop></linearGradient><linearGradient x1="100%" y1="49.994%" x2="0%" y2="49.994%" id="Q"><stop stop-color="#191EAB" offset="45%"></stop><stop stop-color="#1A21AF" offset="53%"></stop><stop stop-color="#1D29BA" offset="60%"></stop><stop stop-color="#2237CD" offset="67%"></stop><stop stop-color="#294AE8" offset="74%"></stop><stop stop-color="#2E57FA" offset="77%"></stop></linearGradient><linearGradient x1="100%" y1="49.992%" x2="-.017%" y2="49.992%" id="R"><stop stop-color="#3CC" offset="0%"></stop><stop stop-color="#36CDCD" stop-opacity=".98" offset="17%"></stop><stop stop-color="#41CFCF" stop-opacity=".93" offset="31%"></stop><stop stop-color="#52D4D4" stop-opacity=".85" offset="44%"></stop><stop stop-color="#6BDADA" stop-opacity=".72" offset="57%"></stop><stop stop-color="#8BE2E2" stop-opacity=".57" offset="69%"></stop><stop stop-color="#B2ECEC" stop-opacity=".38" offset="81%"></stop><stop stop-color="#E0F7F7" stop-opacity=".15" offset="93%"></stop><stop stop-color="#FFF" stop-opacity="0" offset="100%"></stop></linearGradient><linearGradient x1="50.117%" y1="32.975%" x2="50.117%" y2="91.265%" id="S"><stop stop-color="#45EBA5" offset="0%"></stop><stop stop-color="#3EC9A8" offset="14%"></stop><stop stop-color="#37A6AB" offset="31%"></stop><stop stop-color="#328AAD" offset="48%"></stop><stop stop-color="#2E77AF" offset="65%"></stop><stop stop-color="#2C6BB0" offset="82%"></stop><stop stop-color="#2B67B0" offset="100%"></stop></linearGradient><linearGradient x1="-96764.357%" y1="34.197%" x2="-96764.357%" y2="85.082%" id="T"><stop stop-color="#45EBA5" offset="0%"></stop><stop stop-color="#3EC9A8" offset="14%"></stop><stop stop-color="#37A6AB" offset="31%"></stop><stop stop-color="#328AAD" offset="48%"></stop><stop stop-color="#2E77AF" offset="65%"></stop><stop stop-color="#2C6BB0" offset="82%"></stop><stop stop-color="#2B67B0" offset="100%"></stop></linearGradient><linearGradient x1="20.9%" y1="13.801%" x2="46.329%" y2="49.419%" id="U"><stop stop-color="#2B67B0" offset="1%"></stop><stop stop-color="#FFF" offset="100%"></stop></linearGradient><linearGradient x1="75.139%" y1="50.004%" x2="68.677%" y2="50.004%" id="V"><stop stop-color="#0048B0" offset="0%"></stop><stop stop-color="#001F86" offset="100%"></stop></linearGradient><linearGradient x1="10.387%" y1="30.64%" x2="130.599%" y2="89.392%" id="W"><stop stop-color="#3DA7FF" offset="0%"></stop><stop stop-color="#172D9A" offset="100%"></stop></linearGradient><linearGradient x1="40.833%" y1="72.683%" x2="59.189%" y2="27.276%" id="X"><stop stop-color="#3CC" offset="0%"></stop><stop stop-color="#36CDCD" stop-opacity=".98" offset="17%"></stop><stop stop-color="#41CFCF" stop-opacity=".93" offset="31%"></stop><stop stop-color="#52D4D4" stop-opacity=".85" offset="44%"></stop><stop stop-color="#6BDADA" stop-opacity=".72" offset="57%"></stop><stop stop-color="#8BE2E2" stop-opacity=".57" offset="69%"></stop><stop stop-color="#B2ECEC" stop-opacity=".38" offset="81%"></stop><stop stop-color="#E0F7F7" stop-opacity=".15" offset="93%"></stop><stop stop-color="#FFF" stop-opacity="0" offset="100%"></stop></linearGradient><linearGradient x1="63.135%" y1="20.323%" x2="63.135%" y2="68.085%" id="Y"><stop stop-color="#A9D0E5" offset="0%"></stop><stop offset="100%"></stop></linearGradient><linearGradient x1="3001.407%" y1="-4074.558%" x2="3001.407%" y2="-4023.531%" id="Z"><stop stop-color="#A9D0E5" offset="0%"></stop><stop offset="100%"></stop></linearGradient><linearGradient x1="3001.459%" y1="-3431.655%" x2="3001.459%" y2="-3387.815%" id="aa"><stop stop-color="#A9D0E5" offset="0%"></stop><stop offset="100%"></stop></linearGradient><linearGradient x1="-.105%" y1="49.953%" x2="100.023%" y2="49.953%" id="ab"><stop stop-color="#45EBA5" offset="0%"></stop><stop stop-color="#41D6A7" offset="9%"></stop><stop stop-color="#39AEAA" offset="29%"></stop><stop stop-color="#338FAD" offset="48%"></stop><stop stop-color="#2F79AF" offset="66%"></stop><stop stop-color="#2C6CB0" offset="84%"></stop><stop stop-color="#2B67B0" offset="100%"></stop></linearGradient><linearGradient x1="51.05%" y1="99.969%" x2="49.874%" y2=".491%" id="ac"><stop stop-color="#45EBA5" offset="0%"></stop><stop stop-color="#59EDAE" offset="5%"></stop><stop stop-color="#84F2C4" offset="16%"></stop><stop stop-color="#AAF6D6" offset="28%"></stop><stop stop-color="#C9F9E5" offset="40%"></stop><stop stop-color="#E1FCF0" offset="53%"></stop><stop stop-color="#F2FEF9" offset="67%"></stop><stop stop-color="#FCFFFD" offset="82%"></stop><stop stop-color="#FFF" offset="100%"></stop></linearGradient></defs><g transform="translate(0 -1)" fill="none"><path d="M169.143 267.118l-49.818-29.616a7.553 7.553 0 0 0-7.446-.139l-107.305 58.2c-2.127 1.266-3.361 2.905-3.361 4.617 0 1.713 1.223 3.383 3.414 4.649l67.328 38.903a.606.606 0 0 1 .223.83.596.596 0 0 1-.83.223L4.021 305.882C1.436 304.382 0 302.361 0 300.18c0-2.18 1.404-4.18 3.957-5.66l107.954-58.508a7.553 7.553 0 0 1 7.446.139l51.062 30.286m100.486-84.677l-42.297-24.628c-8.382-4.84-16.286-5.606-22.254-2.127-5.968 3.478-9.255 10.638-9.255 20.35v3.096c.298.202.606.404.925.595v-3.69c0-9.33 3.128-16.277 8.798-19.543 5.67-3.266 13.234-2.51 21.276 2.128l42.296 24.627a.468.468 0 0 0 .638-.17.468.468 0 0 0-.127-.639zm-131.91-29.34V57.104c0-19.084-13.447-42.37-29.967-51.902-8.096-4.67-15.723-5.415-21.489-2.128-5.765 3.287-8.946 10.308-8.946 19.649v6.648l.936.936v-7.542c0-8.989 3.01-15.69 8.51-18.84 5.5-3.148 12.766-2.414 20.553 2.128 16.265 9.383 29.499 32.307 29.499 51.062v95.315c0 15.819 9.308 34.531 21.924 45.797v-1.256c-12.148-11.148-21.02-29.233-21.02-44.551z" fill="#FBD21A"></path><path d="M160.08 197.865s-10.766-10.978-14.958-20.01c-4.191-9.032-6.383-17.414-6.446-24.882-.064-7.468-.139-71.614-.139-71.614s.458-26.595-.66-30.797c-1.116-4.202-3.754-26.595-25.7-42.7C90.23-8.245 79.274 9.084 79.4 18.158c.128 9.074 0 14.893 0 14.893s12.021 9.712 16.553 23.605c4.532 13.894 4.978 11.49 5.053 25.319.074 13.829.149 83.954.149 83.954s-1.064 12.319 2.042 21.85c3.107 9.532 8.585 20.106 15.117 27.02 6.531 6.915 16.19 15.096 25.116 14.287 8.925-.808 14.893-4.095 16.648-18.212v-13.01z" fill="#000D54"></path><path fill="#000D54" d="M87.54 3.117L50.55 24.435l28.85 8.596z"></path><path d="M197.099 178.419v4.255c-2.064-1.49-11.702-8.106-20.925-7.776-10.35.361-13.829 9.84-13.829 9.84s-2.447 7.074-2.266 10.393c0 .564.064 1.245.085 1.968l-.18-.16v1.256l.212.18c.085 3.192.117 6.702.117 6.702a58.508 58.508 0 0 1-.808 10.457c-1.607 7.447-7.926 11.702-8.415 12.362l37.956-21.85.106-.054.15-.095.19-.107c5.49-3.383 8.511-10.202 8.511-19.276v-7.446c-.298-.245-.606-.447-.904-.65z" fill="#000C3F"></path><path d="M167.526 177.45l38.85-22.477a19.35 19.35 0 0 1 14.626-.553c8.01 2.936 49.998 28.105 49.998 28.105l-37.487 21.606s-43.563-26.989-48.68-28.35c-10.531-2.777-17.307 1.67-17.307 1.67z" fill="#000D54"></path><path d="M78.593 32.329a37.435 37.435 0 0 0-19.095-9.34C47.7 21.18 42.818 34.976 42.818 34.976a75.976 75.976 0 0 0-1.33 11.415c0 4.255.35 19.659.35 19.659l37.436-21.553a.468.468 0 0 0 .255-.415V33.137c-.309-.308-.628-.49-.936-.808z" fill="#000C3F"></path><path d="M143.803 229.619a27.318 27.318 0 0 1-13.414-4.096c-16.415-9.478-29.786-32.594-29.786-51.53V78.72c0-18.786-13.234-41.71-29.5-51.061-7.765-4.585-15.063-5.32-20.53-2.128-5.468 3.191-8.51 9.84-8.51 18.84v21.275a.468.468 0 1 1-.926 0V44.371c0-9.34 3.191-16.319 8.936-19.649 5.744-3.33 13.403-2.595 21.499 2.075 16.552 9.5 29.999 32.775 29.999 51.923v95.316c0 18.638 13.127 41.392 29.275 50.722 7.734 4.457 14.989 5.201 20.414 2.063 5.426-3.138 8.404-9.776 8.404-18.701v-11.244c0-9.67 3.287-16.893 9.255-20.34 5.968-3.447 13.83-2.68 22.255 2.128l42.296 24.626c.223.13.299.415.17.639a.479.479 0 0 1-.638.17l-42.296-24.638c-8.075-4.659-15.649-5.425-21.276-2.127-5.628 3.298-8.787 10.212-8.787 19.531v11.191c0 9.276-3.191 16.202-8.883 19.51a15.616 15.616 0 0 1-7.957 2.053z" fill="#FBD21A"></path><path fill="#45EBA5" d="M110.698 99.603V96.23l3.925-2.265v3.372zm11.074-12.691v-3.373l7.478-4.308v3.362zm-10.702-.702v-3.362l18.18-10.5v3.373zm6.32 9.52v-3.36l15.169-8.766v3.372zm-6.32-2.648V89.72l7.479-4.319v3.372zm4.404 39.253v3.362l-4.595 2.66v-3.362zm8.372-4.829v3.361l-4.595 2.66v-3.372zm5.032-9.191v3.361l-17.786 10.266v-3.362zm-8.883-10.649v-3.361l8.883-5.128v3.362zm-9.116 5.266v-3.362l4.595-2.66v3.362zm0 6.298v-3.373l8.755-5.053v3.362zm12.297-7.107v-3.361l5.702-3.298v3.372zm-3.181 34.723v-3.362l8.883-5.127v3.372zm-9.116 5.276v-3.372l4.595-2.65v3.362zm0 6.287v-3.362l8.755-5.063v3.361zm12.297-7.096v-3.372l5.702-3.287v3.362zm93.199 31.435l-2.915-1.68 3.925-2.266 2.915 1.68zm5.627-9.542l-2.914-1.68 7.478-4.32 2.915 1.681zm-16.659 2.734l-2.914-1.68 18.18-10.49 2.915 1.681zm17.723 2.947l-2.915-1.692 15.17-8.755 2.915 1.681zm-11.766.5l-2.914-1.692 7.478-4.308 2.915 1.68z"></path><path d="M313.69 427.899l-165.249-95.411c-1.893-1.064-1.66-3 .532-4.256l97.507-56.295a8.16 8.16 0 0 1 7.372-.309l165.281 95.38c1.894 1.063 1.66 2.989-.532 4.255l-97.528 56.38a8.255 8.255 0 0 1-7.383.256z" fill="#2B67B0" opacity=".59" style="mix-blend-mode:multiply"></path><path d="M440.409 305.606l-164.75-95.114a6.17 6.17 0 0 1-2.956-5.957l21.86-116.39c.394-2.127 2.362-2.882 4.394-1.701l164.738 95.113a6.149 6.149 0 0 1 2.958 5.957l-21.85 116.39c-.394 2.116-2.362 2.882-4.394 1.702z" fill="#0C2C4C"></path><path d="M442.281 306.744a4.393 4.393 0 0 1-2.127-.628l-164.781-95.113a6.702 6.702 0 0 1-3.245-6.575L293.99 88.04a3.191 3.191 0 0 1 1.745-2.457 3.787 3.787 0 0 1 3.478.35l164.75 95.114a6.713 6.713 0 0 1 3.19 6.575L445.378 304.01a3.245 3.245 0 0 1-1.787 2.457 3.191 3.191 0 0 1-1.309.277zM297.085 86.475a1.968 1.968 0 0 0-.83.17 2.13 2.13 0 0 0-1.117 1.65l-21.861 116.357a5.638 5.638 0 0 0 2.68 5.319l164.74 95.113a2.67 2.67 0 0 0 2.403.298 2.128 2.128 0 0 0 1.128-1.606l21.85-116.4a5.627 5.627 0 0 0-2.67-5.319L298.66 86.944a3.191 3.191 0 0 0-1.574-.469z" fill="#FBD21A"></path><path d="M446.696 191.876L281.958 96.805a3.085 3.085 0 0 0-3.117-.234l-3.543 2.053 2.128.862-21.723 115.4a6.16 6.16 0 0 0 2.958 5.946l164.504 94.975-.277 2.49 3.51-2.054a2.649 2.649 0 0 0 1.405-2l21.861-116.378a6.18 6.18 0 0 0-2.968-5.99z" fill="url(#a)"></path><path d="M420.26 320.105l-8.318 4.106-157.44-90.88a8.021 8.021 0 0 0-7.213.299l-91.412 52.774-8.66-4.712 3.097 9.893c.227.533.633.97 1.148 1.234L313 386.08a7.99 7.99 0 0 0 7.212-.298l95.316-55.03a3.447 3.447 0 0 0 1.67-1.797l3.064-8.851z" fill="url(#b)"></path><path d="M446.696 191.876L281.958 96.805a3.085 3.085 0 0 0-3.117-.234l-3.543 2.053 2.128.862-21.723 115.4a6.16 6.16 0 0 0 2.958 5.946l82.741 47.775 107.368-74.678a6.074 6.074 0 0 0-2.074-2.053z" fill="url(#c)"></path><path d="M419.771 318.073l-164.738-95.156a6.17 6.17 0 0 1-2.915-5.904l21.808-116.442c.404-2.128 2.372-2.883 4.404-1.713l164.738 95.113a6.16 6.16 0 0 1 2.958 5.958l-21.85 116.389c-.405 2.117-2.373 2.883-4.405 1.755z" fill="url(#d)"></path><path d="M419.07 313.754l-162.026-93.55a2.128 2.128 0 0 1-1.064-2.127l21.488-114.379a.947.947 0 0 1 1.564-.51l162.026 93.55a2.128 2.128 0 0 1 1.064 2.127l-21.5 114.293a.957.957 0 0 1-1.553.596z" fill="url(#e)"></path><path d="M313.69 378.454l-165.249-95.411c-1.893-1.064-1.66-2.99.532-4.256l97.507-56.295a8.223 8.223 0 0 1 7.372-.309l165.281 95.411c1.894 1.064 1.66 3-.532 4.256l-97.496 56.295a8.18 8.18 0 0 1-7.415.309z" fill="url(#f)"></path><path d="M313.69 378.454l-165.249-95.411c-1.893-1.064-1.66-2.99.532-4.256l97.507-56.295a8.223 8.223 0 0 1 7.372-.309l165.281 95.411c1.894 1.064 1.66 3-.532 4.256l-97.496 56.295a8.18 8.18 0 0 1-7.415.309z" fill="#3CC"></path><path d="M148.93 280.521l97.508-56.295a8.191 8.191 0 0 1 7.372-.309l165.323 95.411a2.75 2.75 0 0 1 1.064 1 1.979 1.979 0 0 0-1.064-2.734l-165.28-95.41a8.223 8.223 0 0 0-7.373.308l-97.55 56.295c-1.616.926-2.127 2.213-1.584 3.256a3.915 3.915 0 0 1 1.585-1.522z" fill="url(#g)"></path><path d="M419.133 317.594l-90.635-52.327-49.53 20.744 1 52.253H305.5l43.616 23.754 17.86-10.308 28.063-16.212 23.638-13.648c2.085-1.256 2.319-3.16.457-4.256z" fill="#3C6ABC"></path><path fill="url(#h)" d="M279.936 338.264l-75.454-43.562 75.444-101.56 75.465 101.56z"></path><path fill="url(#i)" d="M279.936 269.394l-75.454-43.573 75.444-43.562 75.465 43.562z"></path><path fill="url(#j)" d="M279.936 269.394l-75.454-43.573v68.88l75.454 43.563 75.455-43.562v-68.88z"></path><path fill="#3CC" d="M279.936 268.256l-74.476-42.998-.978.563 75.454 43.573 75.455-43.573-.99-.563z"></path><path fill="#004496" d="M345.913 289.978v-48.487l-56.509 32.626v48.488z"></path><path fill="url(#k)" d="M339.009 245.47v41.306l-49.605 28.638v7.19l56.509-32.626v-48.487z"></path><path fill="#1A4272" d="M214.003 261.299v8.936l56.412 32.562v-8.936z"></path><path fill="#3CC" d="M218.311 267.692v-3.915l-4.308-2.478v8.936l56.412 32.562v-5.02z"></path><path fill="#FFF" d="M279.936 265.362l-69.306-40.009 69.296-40.009 69.306 40.01z"></path><path fill="#FFF" d="M279.936 255.373l-69.306-40.009 69.296-40.009 69.306 40.01z"></path><path fill="#FFF" d="M279.936 254.33l-68.401-39.487-.905.521 69.306 40.01 69.296-40.01-.905-.521z"></path><path fill="url(#l)" d="M349.232 225.353v-9.989l-69.296 40.01v9.988z"></path><path fill="url(#m)" d="M210.63 215.364v9.99l69.306 40.008v-9.989z"></path><path fill="url(#n)" d="M279.936 258.48l-75.454-43.563 75.444-43.562 75.465 43.562z"></path><path fill="url(#o)" d="M279.936 247.608l-75.454-43.562 75.444-43.563 75.465 43.563z"></path><path fill="#3CC" d="M279.936 246.48l-74.476-42.998-.978.564 75.454 43.562 75.455-43.562-.99-.564z"></path><path fill="url(#p)" d="M279.936 247.608l-75.454-43.562v10.871l75.454 43.563 75.455-43.563v-10.871z"></path><path fill="url(#q)" d="M55.647 57.02L.415 25.126l25.393-14.66L81.04 42.35z" transform="translate(182.972 262.756)"></path><path fill="url(#r)" d="M81.04 42.35v4.85L55.647 61.86v-4.84z" transform="translate(182.972 262.756)"></path><path fill="url(#s)" d="M.415 25.127v4.85L55.647 61.86v-4.84z" transform="translate(182.972 262.756)"></path><path fill="#3CC" d="M249.618 306.201l-51.2-29.562 23.542-13.596 51.2 29.563z"></path><path fill="#FFF" d="M273.16 292.606v1.606l-23.542 13.596V306.2z"></path><path fill="url(#t)" d="M15.446 13.882v1.607l51.2 29.563v-1.607z" transform="translate(182.972 262.756)"></path><path fill="#FBD21A" d="M210.056 270.543l-24.914 12.414v4.436l53.477 30.957 23.233-13.415V300.5z"></path><path fill="url(#u)" d="M55.647 48.168L.415 16.287l25.393-14.67L81.04 33.509z" transform="translate(182.972 262.756)"></path><path fill="#4C7FF2" d="M238.619 306.286l-46.137-26.626 16.297-10.021 46.254 27.169z"></path><path fill="#FBD21A" d="M208.758 270.266l46.137 26.616 1.074-.617-47.21-27.243-17.351 10.02 1.074.618z"></path><path fill="url(#r)" d="M81.04 33.51v4.85L55.647 53.02v-4.852z" transform="translate(182.972 262.756)"></path><path fill="url(#v)" d="M.415 16.287v4.84l55.232 31.892v-4.85z" transform="translate(182.972 262.756)"></path><path d="M102.815 95.943l-64.2-36.7 6.468-21.468L93.04 56.264s26.382 19.723 26.648 20.137c.266.415-14.127 18.5-14.127 18.5l-2.745 1.042z" fill="url(#w)" transform="translate(245.735 246.8)"></path><path fill="#FBD21A" d="M281.553 304.17l37.02-21.372-.574-.33-37.02 21.372zm55.541-10.638l-.575-.33-36.977 21.35.574.33zm-18.989 31.732l.575.33 36.934-21.329-.574-.33zm18.319 10.851l.553.34 37.158-21.446-.575-.34z"></path><path d="M144.07 69.146c0-5.436-3.192-11.563-7.341-13.935L44.392 1.68a5.319 5.319 0 0 0-5.479-.362c-1.819 1.064-2.861 3.383-2.861 6.383 0 5.436 3.191 11.553 7.34 13.935l3.5 2.022-19.616 10.946 63.444 36.67 9.457 5.904 5.128 4.978.765 4.085.67 4.192-1.563 5.925L141.25 75.53c1.798-1.064 2.82-3.372 2.82-6.383zm-99.678-49.21c-3.5-2.022-6.383-7.447-6.383-12.213 0-2.287.681-3.99 1.872-4.68a3.51 3.51 0 0 1 3.48.361l19.552 11.33-13.979 7.85-4.542-2.649z" fill="url(#x)" transform="translate(245.735 246.8)"></path><path d="M285.649 249.863a2.564 2.564 0 0 1 1.404-.33 2.862 2.862 0 0 0-2.319.16c-1.191.691-1.872 2.393-1.872 4.68 0 4.713 2.85 10.192 6.382 12.213l4.522 2.627.319-.18-3.926-2.277c-3.5-2.021-6.382-7.447-6.382-12.223 0-2.277.68-3.979 1.872-4.67z" fill="#A9EBFF"></path><path d="M382.464 302.031l-92.337-53.53a6.776 6.776 0 0 0-2.744-.925c.64.172 1.254.426 1.83.755l92.337 53.53c4.116 2.372 7.34 8.51 7.34 13.936 0 2.989-1.064 5.319-2.82 6.382l-34.934 20.149-.224.819 36.073-20.819c1.798-1.063 2.82-3.372 2.82-6.382 0-5.415-3.224-11.543-7.34-13.915z" fill="#FBD21A"></path><path fill="#FBD21A" d="M287.51 289.819l37.01-21.382-.564-.33-37.02 21.382zm55.541-10.638l-.574-.33-36.978 21.34.575.33zm-18.989 31.722l.575.33 36.924-21.318-.564-.33zm18.318 10.851l.543.35 37.17-21.456-.575-.33zm10.298 13.489c0 4.319-3.032 6.063-6.765 3.904a14.893 14.893 0 0 1-6.766-11.702c0-4.308 3.032-6.063 6.766-3.904a14.968 14.968 0 0 1 6.765 11.702z"></path><path d="M350.072 333.743c0 2.638-1.862 3.712-4.16 2.393a9.202 9.202 0 0 1-4.148-7.19c0-2.65 1.861-3.724 4.149-2.405a9.202 9.202 0 0 1 4.159 7.202z" fill="#2573BA"></path><path d="M101.645 88.295a9.149 9.149 0 0 1-4.149-7.192 3.798 3.798 0 0 1 .458-1.936c-1.16.181-1.926 1.234-1.926 2.936a9.202 9.202 0 0 0 4.15 7.192c1.605.925 2.999.67 3.69-.469a3.425 3.425 0 0 1-2.223-.531z" fill="url(#y)" transform="translate(245.735 246.8)"></path><path d="M102.922 96.943a6.383 6.383 0 0 1-3.192-.957L7.393 42.466c-4.117-2.382-7.34-8.51-7.34-13.935 0-3.021 1.064-5.32 2.862-6.383a5.32 5.32 0 0 1 5.468.362l92.337 53.53c4.116 2.372 7.34 8.51 7.34 13.935 0 3.01-1.064 5.32-2.862 6.383a4.468 4.468 0 0 1-2.276.585zm-2.224-2.68a3.532 3.532 0 0 0 3.49.361c1.191-.68 1.872-2.383 1.872-4.67 0-4.713-2.851-10.202-6.383-12.223L7.34 24.211a3.532 3.532 0 0 0-3.49-.36c-1.18.69-1.86 2.393-1.86 4.68 0 4.712 2.84 10.191 6.382 12.212l92.337 53.52h-.01z" fill="url(#z)" transform="translate(245.735 246.8)"></path><path fill="url(#A)" d="M270.415 293.861l-50.923-29.392-2.138 1.234 51.061 29.637v1.617l2-1.149v-1.617z"></path><path fill="#FFF" d="M205.577 279.628l3.543-2.043 3.532 2.043-3.543 2.042zm7.532 4.404l3.542-2.043 3.522 2.032-3.532 2.043z"></path><path fill="#FFF" opacity=".5" d="M220.64 288.287l3.532-2.042 3.532 2.042-3.542 2.128zm7.522 4.383l3.542-2.043 3.532 2.032-3.543 2.01zm7.531 4.35l3.543-2.042 3.52 2.032-3.53 2.043z"></path><path d="M372.21 299.819h-5.32c-6.212-3.256-15.701-3.256-21.903 0h-5.319v6.957c0 2.404 1.585 4.819 4.766 6.648 6.383 3.681 16.68 3.681 23.052 0 3.192-1.83 4.766-4.255 4.766-6.648l-.043-6.957z" fill="url(#B)"></path><ellipse fill="#FFF" cx="355.912" cy="299.819" rx="16.297" ry="9.404"></ellipse><path d="M346.232 305.478l-.117-.064c-.436-.245-.383-.691.117-.979l17.68-10.201a1.872 1.872 0 0 1 1.691-.064l.117.064c.426.244.373.68-.127.978l-17.67 10.202a1.87 1.87 0 0 1-1.691.064z" fill="#EFEFEF"></path><path d="M333.583 278.564h-5.319c-6.212-3.266-15.701-3.266-21.903 0h-5.32v6.947c0 2.404 1.586 4.819 4.767 6.648 6.382 3.681 16.68 3.681 23.041 0 3.192-1.83 4.777-4.255 4.777-6.648l-.043-6.947z" fill="url(#C)"></path><path d="M328.807 285.213c-6.383 3.67-16.68 3.67-23.042 0-6.361-3.67-6.383-9.628 0-13.308 6.383-3.681 16.68-3.67 23.042 0 6.361 3.67 6.372 9.627 0 13.308z" fill="#FFF"></path><path d="M326.977 284.213l.117-.064c.426-.245.372-.68-.128-.979l-17.67-10.202a1.872 1.872 0 0 0-1.69-.063l-.118.063c-.436.245-.383.681.117.98l17.68 10.2c.522.29 1.15.314 1.692.065z" fill="#EFEFEF"></path><path fill="#FFF" opacity=".5" d="M307.86 213.3l-15.882-9.17 15.883-9.17-14.191-8.201-15.883 9.17-15.882-9.17-14.19 8.202 15.881 9.17-15.882 9.159 14.191 8.202 15.882-9.17 15.883 9.17z"></path><path d="M455.11 516.449a15.414 15.414 0 0 0 13.979 0l116.666-67.806c3.85-2.234 3.83-5.851 0-8.085L468.28 372.752a15.414 15.414 0 0 0-13.978 0l-116.666 67.806c-3.84 2.234-3.819 5.85.053 8.095l117.422 67.796z" opacity=".59" fill="#2B67B0"></path><path d="M455.11 467.1a15.35 15.35 0 0 0 13.979 0l116.666-67.796c3.85-2.234 3.83-5.861 0-8.095L468.28 323.392a15.414 15.414 0 0 0-13.978 0L337.636 391.21c-3.84 2.234-3.819 5.861.053 8.095L455.111 467.1z" fill="#4C7FF2"></path><path d="M121.06 155.047a15.414 15.414 0 0 0 13.977 0l116.666-67.816c1.905-1.064 2.862-2.564 2.873-4.021v-9.213c0 1.458-.958 2.915-2.873 4.021l-116.602 67.817a15.35 15.35 0 0 1-13.978 0L3.66 78.04C1.702 76.912.734 75.444.734 73.965v9.213c0 1.468.968 2.946 2.915 4.074l117.41 67.795z" fill="url(#D)" transform="translate(334.03 321.265)"></path><path fill="url(#E)" d="M67.157 40.094L.521.32.436 13.882l66.636 39.776z" transform="translate(472.323 363.816)"></path><path fill="url(#F)" d="M67.157 40.094l-.085 13.564 37.477-21.436V18.67z" transform="translate(472.323 363.816)"></path><path fill="#E2E8EF" d="M545.745 331.743l-66.072-39.552-6.733 71.838 66.072 39.552z"></path><path fill="#536FE0" d="M545.745 331.743l-6.382 72.359 37.509-21.542v-66.7z"></path><path fill="#677DFF" d="M576.872 315.86l-66.87-40.253-30.329 16.584 66.072 39.552z"></path><path d="M531.118 379.358c2.234 1.298 4.256.16 4.458-2.532l3.308-38.02a8.212 8.212 0 0 0-3.617-7.223l-36.413-21.148c-2.224-1.298-4.256-.16-4.458 2.532l-3.308 38.02a8.212 8.212 0 0 0 3.617 7.212l36.413 21.16z" fill="#536FE0"></path><path d="M498.854 310.435c-2.224-1.298-4.256-.16-4.458 2.532l-3.308 38.02c-.03.458-.012.918.053 1.372 0 .149 37.914-22.722 39.254-23.605l-31.541-18.319z" fill="#445EB2"></path><path d="M545.724 331.902l-66.072-39.551-6.255 72.05 66.072 39.541 6.255-72.04zm-6.883 6.915l-3.308 38.02c-.234 2.691-2.223 3.83-4.457 2.532l-36.414-21.17a8.212 8.212 0 0 1-3.617-7.212l3.309-38.02c.234-2.691 2.234-3.83 4.457-2.532l36.414 21.148a8.212 8.212 0 0 1 3.659 7.223l-.043.011z" fill="#7690FF"></path><path d="M514.768 363.22c.926.469 2.02.469 2.947 0l9.127-5.319c.808-.468.798-1.234 0-1.712l-12.819-7.447a3.266 3.266 0 0 0-2.946 0l-9.128 5.32a.904.904 0 0 0 0 1.712l12.819 7.446z" fill="#7690FF"></path><path d="M15.202 14.893c.368.016.735-.065 1.063-.234l8.51-5a.543.543 0 0 0 0-.936L12.586 1.65a2.042 2.042 0 0 0-1.064-.245 2.128 2.128 0 0 0-1.064.234s-6.574 3.82-8.744 5.106a.457.457 0 0 0 0 .798l12.446 7.106c.321.17.68.254 1.043.245z" fill="url(#G)" transform="translate(501.045 347.86)"></path><path d="M517.066 362.55l8.563-5.032-11.989-6.978a2.034 2.034 0 0 0-.968-.223 1.904 1.904 0 0 0-.957.223l-8.51 5.021 11.978 6.979c.297.158.631.235.968.223.318.004.632-.069.915-.213z" fill="#445EB2"></path><path d="M13.702 16.467a3.19 3.19 0 0 0 2.936 0l9.138-5.318c.333-.161.558-.484.595-.852V9.181c-.037.367-.262.69-.595.85l-9.128 5.32a3.266 3.266 0 0 1-2.946 0L.872 7.903a1.064 1.064 0 0 1-.617-.862v1.064c.034.38.27.713.617.872l12.83 7.49z" fill="url(#H)" transform="translate(501.045 347.86)"></path><path fill="#0C2C4C" d="M512.002 351.263l-5.266 3.085 3.851 2.234 5.266-3.074z"></path><path fill="#131C2A" d="M506.736 354.348v.362l3.851 2.245v-.373zm3.851 2.234v.373l5.266-3.085v-.362z"></path><path fill="#0C2C4C" d="M516.661 353.965l-2.52 1.48 2.372 1.371 2.51-1.468z"></path><path fill="#131C2A" d="M514.14 355.444v.372l2.373 1.373v-.373zm2.373 1.372v.373l2.51-1.468v-.373z"></path><path fill="#45EBA5" d="M512.79 356.465l-1.352.798.681.394 1.351-.798z"></path><path fill="url(#I)" d="M.82.894v.372l.68.394v-.373z" transform="translate(510.62 356.37)"></path><path fill="url(#J)" d="M1.5 1.287v.373L2.85.862V.489z" transform="translate(510.62 356.37)"></path><path fill="#45EBA5" d="M514.076 357.21l-1.361.798.68.393 1.362-.787z"></path><path fill="url(#I)" d="M1.032 1.638v.373l.68.393v-.372z" transform="translate(511.683 356.37)"></path><path fill="url(#K)" d="M1.713 2.032v.372l1.361-.798v-.361z" transform="translate(511.683 356.37)"></path><path fill="#131C2A" d="M513.438 334.828l-2.744 1.447 5.361 3.117 2.66-1.458z"></path><path d="M511.374 340.487v-1.84l1.309-.766-8.372-4.862a1.308 1.308 0 0 0-1.309 0 1.33 1.33 0 0 0-.649 1.139v.33a1.31 1.31 0 0 0 .65 1.138l8.371 4.861z" fill="#45EBA5"></path><path fill="#0C2C4C" d="M514.779 336.424l-1.298.755 1.18.691 1.298-.766zm-.819 1.755l-1.17-.692-2.096-1.212-.022 7.733 5.362 3.117.021-7.733z"></path><path fill="#7DB2D2" d="M538.14 354.189l-.011 1.84 1.308-.766v-1.84z"></path><path fill="#E37C57" d="M513.491 333.892l-.01 3.287 1.298-.755.01-3.298z"></path><path fill="#0C2C4C" d="M514.79 333.126l-1.299.766 1.181.68 1.298-.755z"></path><path d="M515.938 337.104v-3.287l-1.298.756-1.18-.681v3.33a2.33 2.33 0 0 0 2.35 0l.128-.118z" fill="#0C2C4C"></path><path d="M534.288 332.562a1.415 1.415 0 0 1-1.425-.138l-1.308.766c.415.3.96.353 1.425.138l1.308-.766zm1.766-.606l-1.308.766c.082.8-.271 1.584-.926 2.053l1.266-.745a2.255 2.255 0 0 0 .968-2.074z" fill="#45EBA5"></path><path d="M513.513 326.392v7.5a2.33 2.33 0 0 0 2.35 0l.128-.075v-7.5a.468.468 0 0 1 .692-.404l14.893 8.638c1.755 1.064 3.191.202 3.191-1.83l1.309-.765v-2.362a1.298 1.298 0 0 0-.585-1.064.426.426 0 0 0-.415 0l-1.309.756a.415.415 0 0 0-.17.382v2.362c0 1.287-.904 1.798-2.01 1.16l1.308-.766-14.893-8.628a2.223 2.223 0 0 0-2.255-.223l-1.309.766a2.213 2.213 0 0 0-.925 2.053z" fill="#45EBA5"></path><path d="M515.406 348.636v-4.085a.851.851 0 1 0-1.702 0v4.085a.851.851 0 0 0 1.702 0zm.649-9.244l-.021 7.733 2.49-1.404.19-7.787z" fill="#0C2C4C"></path><path d="M538.129 356.03v-1.788l1.298-.766-20.723-12.095a1.32 1.32 0 0 0-1.968 1.127v.33c.004.472.254.908.66 1.15l20.733 12.041z" fill="#45EBA5"></path><path fill="#000D54" d="M481.237 314.978l-.99 11.286 9.341 5.426.979-11.298z"></path><path d="M485.716 326.786c1.287-.096 2.223-1.628 2.127-3.415-.095-1.787-1.287-3.192-2.585-3.053-1.297.138-2.223 1.627-2.127 3.404.096 1.776 1.287 3.16 2.585 3.064z" fill="#FBD21A"></path><path d="M484.673 324.211l-4 3.043-2.127 1.893.553 2.383 1.787-1.17c.521.18 1.99-.904 1.99-.904a.67.67 0 0 0 .468.34l.67-1.415a3.787 3.787 0 0 0-.798-1.925l1.574-1.383c.298-.617-.117-.862-.117-.862z" fill="#F7B7A9"></path><path d="M478.96 328.488l-12.116 6.755 2.532 5.606 10.904-9.691a2.128 2.128 0 0 0-1.32-2.67z" fill="#D4DEEB"></path><path d="M470.961 398.336l4.106-2.542-13.552-6.383-2.128.691a2.745 2.745 0 0 0 .138 5.32l11.436 2.914z" fill="#004B70" opacity=".15" style="mix-blend-mode:multiply"></path><path d="M471.684 398.251c.415 0 4.82-1.5 4.82-1.5a3.883 3.883 0 0 0 1.457-1.064c.925-1.606-1.607-1.734-1.862-1.712-.255.02-3.032.542-3.032.542l-3.595.755-.287 1.905c.35 1.308 2.074 1.106 2.5 1.074zm-10.223-3.138c.405-.128 3.128-1.883 3.128-1.883a2.468 2.468 0 0 0 1.702-1.649c.532-1.787-2.49-.99-2.734-.915l-1.617.532-3.319 1.574-.096 1.777c.34 1.596 2.532.691 2.936.564z" fill="#131C2A"></path><path d="M462.834 391.24l3.457-16.148 4.968-23.222-10.032-3.713-.404 1.16a17.318 17.318 0 0 0-.68 8.712l.127 16.946-1.628 17.797c3.181 2.16 4.192-1.531 4.192-1.531z" fill="url(#L)"></path><path d="M462.749 391.475c.03-.07.054-.14.074-.213l3.457-16.148 3.745-17.585c-2.34.479-4.723.809-7.074 1.245-.323.07-.656.07-.979 0-.404.085.628 1.064.255.936 3.904 5.468 3.075 11.223 2.426 17.935a102.124 102.124 0 0 1-1.904 13.83z" fill="#000" opacity=".15"></path><path d="M469.323 396.209a2.574 2.574 0 0 0 3.585-1.596l1.064-20.148c0-5.404-1.65-23.702-1.65-23.702l-3.882 2.415-7.734 5.383 4.532 3.128s3.117 13.02 2.872 14.03c-.245 1.012.883 20.287 1.213 20.49z" fill="url(#M)"></path><path d="M470.982 396.4a2.277 2.277 0 0 0 1.926-1.787l1.064-20.148c0-5.404-1.65-23.702-1.65-23.702l-2.51 1.575c-.16.532 1.67 1.638 1.872 22.744.242 7.1.003 14.208-.712 21.275l.01.043z" fill="#000" opacity=".15"></path><path d="M475.44 361.689s1.063 0 1.606-.086a2.255 2.255 0 0 0 1.287-.765c.064-.213.564-1.99.628-2.192a23.723 23.723 0 0 0-1.064-2.861c-.255-.67-1.064-2.564-1.979-4.617a44.696 44.696 0 0 1-2.553 2.042l2.021 3.192a3.979 3.979 0 0 0-.085 1.648v1.607c-.404.053-.478.51-.478.51l.17.224c-.67.478.096.67.096.67l.34.138a.777.777 0 0 0 .01.49z" fill="#F7B7A9"></path><path d="M476.96 353.668c-1.478-3.405-4.084-9.234-4.084-9.234s-.192-3.191-.458-6.553a7.808 7.808 0 0 0 1.522-2.755c.202-.82-.309-1.777-1.724-3.67a13.83 13.83 0 0 1-.798-1.66.862.862 0 0 0-.063-.138 4.447 4.447 0 0 0-2.65-2.543 44.275 44.275 0 0 0-7.19-1.425c-3.032.947-2.49 5.372-2.628 6.106-.138.734 1.17 14.574 1.17 14.574l-1.064 8.255-.425 7.361s-.968-.106 4.361 1.064a27.26 27.26 0 0 0 11.053-.287l-1.18-9.574 1.17 2.127a5.117 5.117 0 0 0 2.989-1.648z" fill="url(#N)"></path><path d="M467.716 334.19a2.447 2.447 0 0 1-.574-.203v.266c.362 2.947 1.617 11.755 1.617 11.755l5.202 9.223a7.244 7.244 0 0 0 1.883-.66" fill="#000" opacity=".05"></path><path d="M467.004 326.37l1.064-5.914-5.32.064-.319 5.244c0 1.596 4.575 2.213 4.575.607z" fill="#F7B7A9"></path><path d="M466.036 324.69c2.33 0 4.02-1.128 3.989-3.596l-.085-6.233-8.808 1.616.542 4.49c.01 2.425 4.362 3.723 4.362 3.723z" fill="#F7B7A9"></path><path d="M465.94 324.094a7.34 7.34 0 0 0 2.84-5.244c0-1.894 1.16-2.202 1.16-2.202 2.893-2.128-.16-4-2.128-4.82-1.361-.574-5.595-1.063-7.106 2.075-3.99 8.362-.521 9.436.745 9.978 1.085.437 2.468 1.777 4.489.213z" fill="#301108"></path><path d="M469.131 320.999v-2.054s-1.255-1.223-1.425.224c-.181 1.032.532 2.234 1.425 1.83z" fill="#F7B7A9"></path><path fill="#45EBA5" d="M384.156 375.56l-4.99 2.883.011 2.979 4.979-2.872zm.021 8.702l-4.99 2.883.012 2.968 4.989-2.872z"></path><path fill="#FFF" d="M408.293 372.263l-9.574 5.531v.128l9.574-5.521z"></path><path fill="#45EBA5" d="M384.135 371.22l-4.979 2.872.01 2.979 4.98-2.883zm8.903 6.553l-1.691.979v3.893l1.702-.978zm3.182-1.84l-1.692.978.01 3.894 1.692-.979v-.596l-.936.543v-.957l.936-.543zm39.445-20.351l-8.66 5 .01 2.628 8.66-5.01zm-.032-11.116l-8.66 5.01.011 2.617 8.66-5.01zm-.033-11.116l-8.659 4.999.011 2.628 8.66-5zm-36.913 33.551l9.574-5.52 3.798-2.192 1.649-.958 11.616-6.702-.01-.957-11.606 6.712-1.66.947-3.797 2.192-4.128 2.393-.202.117-5.234 3.021-1.99 1.15-2.935 1.69v.958l2.936-1.702z"></path><path fill="#000D54" d="M413.708 358.231l-1.649.958.021 9.935 1.66-.957z"></path><path fill="#45EBA5" d="M408.24 357.497l3.798-4.883 1.649-2.127 5.287-6.808 6.936-4v-.958l-7.17 4.138-5.096 6.564-1.617 2.074-5.085 6.553-3.404 4.383.383.5.202-.117z"></path><path fill="#000D54" d="M413.687 350.487l-1.65 2.127.011 5.617 1.66-.947z"></path><path fill="#45EBA5" d="M398.72 377.794l9.573-5.531 3.798-2.192 1.649-.957 12.233-7.053v-.958l-12.233 7.064-1.66.957-3.797 2.192-9.564 5.52-2.49 1.437-.935.543v.957l.936-.543zm5.403-14.978l4.128-2.393-.011-2.926z"></path><path fill="#45EBA5" d="M408.261 361.38l-9.574 5.521.032 9.936 9.564-5.521zm-9.584 1.436l.01 3.138 5.234-3.02-.383-.5 3.404-4.384zm-1.99 1.149l-5.883 3.404.022 7.202 5.883-3.393-.011-3.128-2.936 1.702v-.957l2.936-1.692zm-12.521 15.957l-4.989 2.872.01 2.979 4.98-2.883z"></path><g opacity=".5" fill="#000D54"><path d="M442.25 309.722l-74.774 43.169.17 59.7 74.774-43.18-.17-59.689zm-28.5 64.275a6.117 6.117 0 0 1-2.787 4.83l-33.775 19.498c-1.543.894-2.808.181-2.808-1.595l-.075-24.042a6.191 6.191 0 0 1 2.798-4.84l33.775-19.5c1.372-.797 2.532-.308 2.766 1.064l5.096-6.563 7.17-4.138v.946l-6.936 4.011-5.32 6.808v6.787l11.607-6.702v.958l-11.617 6.702v9.935l12.223-7.063v.957l-12.127 7.085.01 4.862zm13.191-35.637l8.66-5.01v2.627l-8.66 5v-2.617zm0 11.116l8.66-5.01v2.617l-8.617 5.031-.043-2.638zm0 13.734v-2.585l8.66-5v2.617l-8.66 4.968zm-55.232-1.83v-4.255l66.572-38.424v4.255L371.71 361.38z"></path><path d="M412.059 359.189l-3.798 2.191.022 9.936 3.797-2.192zm-.021-6.575l-3.798 4.883.01 2.926 3.798-2.192z"></path><path d="M398.72 377.794l-2.49 1.436v.596l-1.692.979v-3.894l1.692-.978v2.34l2.49-1.436V366.9l-2.022 1.17v3.128l-5.883 3.393v-7.202l5.883-3.393v3.128l1.99-1.15v-3.138l8.265-4.765 5.095-6.553v-.596c0-.713-.51-1.01-1.149-.649l-33.785 19.478a2.532 2.532 0 0 0-1.15 1.979l.064 24.041c0 .724.522 1.064 1.16.65l33.765-19.49a2.532 2.532 0 0 0 1.149-1.978v-4.883l-3.798 2.192-9.585 5.531zm-5.66-.02v3.893l-1.692.978v-3.936l1.692-.936zm-13.883-3.682l4.979-2.872v2.968l-4.979 2.883v-2.979zm0 4.351l4.99-2.883v2.99l-4.98 2.872-.01-2.979zm0 4.351l4.99-2.872v2.968l-4.98 2.883-.01-2.979zm0 7.319v-2.968l4.99-2.883v2.958l-4.99 2.893z"></path></g><path d="M377.114 369.752l33.764-19.5c.638-.36 1.15-.063 1.15.65v.595l1.605-2.074c-.234-1.383-1.393-1.872-2.765-1.064l-33.776 19.5a6.191 6.191 0 0 0-2.798 4.84l.075 24.041c0 1.777 1.266 2.49 2.808 1.596l33.776-19.5a6.117 6.117 0 0 0 2.787-4.829v-4.872l-1.66.957v4.883a2.532 2.532 0 0 1-1.149 1.979l-33.764 19.489c-.639.372-1.15.074-1.16-.65l-.064-24.041a2.532 2.532 0 0 1 1.17-2z" fill="#000D54"></path><path fill="#45EBA5" d="M438.26 318.7l-66.487 38.393.01 4.287 66.488-38.392z"></path><ellipse fill="#E6E6E6" style="mix-blend-mode:multiply" transform="rotate(-82.55 94.77 419.936)" cx="94.769" cy="419.936" rx="9.159" ry="15.808"></ellipse><path d="M80.04 364.582c2.943-1.5 6.428-1.5 9.372 0l57.668 33.212a3.287 3.287 0 0 1 1.925 2.691l.085 33.563a3.276 3.276 0 0 0-1.925-2.702l-57.668-33.201c-2.94-1.5-6.422-1.5-9.362 0l-24.318 14.042V378.57l24.223-13.989z" fill="url(#O)"></path><path d="M73.72 353.742l5.564 18.265a10.638 10.638 0 0 1 9.702 0l5.521-18.265c-5.734-3.33-15.02-3.33-20.786 0z" fill="#2B67B0"></path><path fill="#1E3679" d="M45.881 369.784l5.564 18.276 27.786-16.053-5.564-18.265zm48.573-16.042l57.487 33.446-4.127 13.659-4.628 2.68-54.243-31.52z"></path><path d="M135.665 395.017l-35.18-20.308a2.51 2.51 0 0 1-.914-2.978l2.553-7.245a2 2 0 0 1 1.149-1.276 1.542 1.542 0 0 1 1.308.117l35.18 20.318a2.521 2.521 0 0 1 .915 2.968l-2.5 7.245a2.032 2.032 0 0 1-1.15 1.276c-.17.063-.35.095-.531.096a1.479 1.479 0 0 1-.83-.213zm-32.243-31.2a1.476 1.476 0 0 0-.798.914l-2.5 7.244a1.957 1.957 0 0 0 .649 2.277l35.18 20.308a.91.91 0 0 0 .808.074c.392-.167.685-.504.798-.915l2.5-7.244a1.968 1.968 0 0 0-.65-2.266l-35.158-20.393a1.064 1.064 0 0 0-.478-.128 1.128 1.128 0 0 0-.351.128zm-47.179 16.956a1.798 1.798 0 0 1-1.011-1.191l-2.043-6.692a2.394 2.394 0 0 1 .926-2.755l15.542-8.978a1.383 1.383 0 0 1 1.223-.107 1.84 1.84 0 0 1 1.064 1.192l2.043 6.691a2.404 2.404 0 0 1-.915 2.755l-15.627 8.979a1.404 1.404 0 0 1-.724.202 1.447 1.447 0 0 1-.478-.096zm13.69-19.148l-15.541 8.978a1.851 1.851 0 0 0-.65 2.075l2.054 6.68c.083.363.33.666.67.82a.78.78 0 0 0 .713-.065l15.542-8.978a1.851 1.851 0 0 0 .68-2l-2.042-6.68c-.09-.36-.336-.66-.67-.82a.691.691 0 0 0-.287-.053.84.84 0 0 0-.468.107v-.064z" fill="#9C9C9C"></path><path d="M151.994 387.22l.575.34.393.234c2.51 1.776 3.596 4 3.245 6.16a7.244 7.244 0 0 1-3.691 4.254l-4.65 2.639.597-1.968 3.531-11.66z" fill="#2B67B0"></path><path d="M26.127 369.773l17.722 10.298c2.944 1.5 6.429 1.5 9.372 0l2.596-3.309v37.754a3.191 3.191 0 0 1-1.628 2.383l-.914.532a10.33 10.33 0 0 1-9.33 0l-17.723-10.319a3.276 3.276 0 0 1-1.925-2.691l-.096-37.35a3.319 3.319 0 0 0 1.926 2.702z" fill="url(#P)"></path><path d="M26.159 364.348l5.255-3.032 45.424-26.222a10.319 10.319 0 0 1 9.329 0l100.209 58.232c2.585 1.5 2.564 3.936 0 5.436l-45.36 26.18-5.319 3.074a10.319 10.319 0 0 1-9.372 0l-17.723-10.298c-2.574-1.5-2.563-3.925 0-5.425l.84-.49a10.5 10.5 0 0 1 8.798-.063l5.213 3.042 19.563-11.297.106.064 4.628-2.681 4.649-2.68a7.234 7.234 0 0 0 3.702-4.256c.34-2.128-.745-4.383-3.256-6.16l-.383-.233-.585-.34-57.444-33.446c-5.734-3.33-15.021-3.33-20.787 0L45.988 369.71l-3.692-2.128 11.596 6.691c2.457 1.426 2.553 3.713.297 5.213l-.968.564a10.319 10.319 0 0 1-9.372 0l-17.722-10.277c-2.575-1.5-2.564-3.936.032-5.425z" fill="#677DFF"></path><path d="M108.613 417.708l17.723 10.297c2.944 1.5 6.428 1.5 9.372 0l50.679-29.254a3.319 3.319 0 0 0 1.957-2.734l.085 37.34a3.308 3.308 0 0 1-1.947 2.733l-50.69 29.254c-2.94 1.5-6.42 1.5-9.36 0l-17.723-10.297a3.276 3.276 0 0 1-1.926-2.692l-.096-37.339a3.319 3.319 0 0 0 1.926 2.692z" fill="url(#Q)"></path><path d="M93.422 346.455c-.702.404-.713 1.064 0 1.468l64.104 37.233a2.734 2.734 0 0 0 2.532 0c.702-.404.713-1.064 0-1.458l-64.104-37.232a2.798 2.798 0 0 0-2.532-.01z" fill="#4FF9E8"></path><path d="M95.954 349.402l-2.543-1.479c-.702-.404-.691-1.064 0-1.468l.128-.064a2.851 2.851 0 0 1 2.394.064l.02 2.947z" fill="#D6CD31"></path><path fill="url(#R)" d="M96.092 319.18l-.202 27.647 62.498 36.084.212-27.648z"></path><g opacity=".8"><path d="M163.313 318.573a4.457 4.457 0 0 0-1.883-3.255l-68.88-39.796-.128 44.487a4.51 4.51 0 0 0 1.883 3.255l68.891 39.765.117-44.456z" fill="#C2C2C2"></path><path d="M93.018 272.49c-1.84-1.064-3.34-.213-3.351 1.904l-.128 45.637a7.319 7.319 0 0 0 3.33 5.755l69.89 40.339c1.841 1.063 3.33.202 3.341-1.915l.128-45.626a7.308 7.308 0 0 0-3.32-5.755l-69.89-40.34z" fill="#000D54"></path><path d="M92.082 271.426a2.34 2.34 0 0 1 2.372.234l69.859 40.328a7.35 7.35 0 0 1 3.33 5.755l-.139 45.637a2.34 2.34 0 0 1-.968 2.128l-1.436.83a2.32 2.32 0 0 0 .968-2.128l.128-45.626a7.308 7.308 0 0 0-3.32-5.755l-69.858-40.34a2.36 2.36 0 0 0-2.372-.233l1.436-.83z" fill="#010826"></path></g><ellipse fill="#45EBA5" transform="rotate(-30.16 162.528 318.566)" cx="162.528" cy="318.566" rx="1" ry="1.064"></ellipse><path d="M162.526 320.7c-.415-.244-.755-.052-.755.426.028.529.31 1.012.755 1.298.415.245.755.053.755-.425a1.649 1.649 0 0 0-.755-1.298zm-.011 3.011c-.415-.244-.744-.053-.744.426.02.528.299 1.013.744 1.298.415.244.755.053.755-.426a1.628 1.628 0 0 0-.755-1.298zm0 3c-.415-.234-.755 0-.755.436a1.64 1.64 0 0 0 .745 1.298c.414.245.755.053.755-.425a1.67 1.67 0 0 0-.745-1.309zm-.01 3.064c-.415-.234-.756 0-.756.436a1.64 1.64 0 0 0 .745 1.298c.425.245.755.053.755-.426a1.649 1.649 0 0 0-.744-1.308zm-.011 2.957c-.415-.234-.755 0-.755.436.028.53.31 1.012.755 1.298.415.245.745 0 .755-.425a1.691 1.691 0 0 0-.755-1.309zm-.011 3.021c-.415-.244-.755-.053-.755.426.029.529.31 1.011.755 1.298.415.244.756.053.756-.426a1.649 1.649 0 0 0-.756-1.298zm-.01 3.011c-.415-.245-.745-.053-.756.425.03.53.31 1.012.756 1.298.415.245.755.053.755-.425a1.628 1.628 0 0 0-.755-1.298zm0 3.01c-.415-.244-.756 0-.756.426a1.64 1.64 0 0 0 .745 1.298c.415.244.755.053.755-.426a1.638 1.638 0 0 0-.744-1.298zm-.011 3.011c-.415-.245-.755-.053-.755.425.024.528.302 1.01.744 1.298.426.245.756 0 .756-.425a1.617 1.617 0 0 0-.745-1.298zm-.011 3.01c-.415-.244-.755-.053-.755.426.025.53.307 1.014.755 1.298.415.244.745.053.756-.426a1.649 1.649 0 0 0-.756-1.298zm-.011 3.011c-.414-.245-.755 0-.755.426.03.528.31 1.011.756 1.297.415.245.755.054.755-.425a1.649 1.649 0 0 0-.755-1.298zm-.01 3c-.415-.234-.745 0-.755.436a1.65 1.65 0 0 0 .755 1.298c.415.245.755 0 .755-.426a1.66 1.66 0 0 0-.755-1.308zm0 3.021c-.415-.245-.755-.053-.755.426.024.527.302 1.01.744 1.297.415.245.756.054.756-.425a1.638 1.638 0 0 0-.745-1.298zm-1.67-39.871l-.117 40.275.096.053.085.054.117-40.275zm-11.063-.564v1.351l4.83 2.788.01-1.351zM94.741 299.85l3.99 2.298v1.351l-3.99-2.298zm1.713-5.042l5.978 3.447-.01 1.34-5.968-3.436zm-3.319 1.096l8.914 5.149v1.34l-8.914-5.138zm9.797 20.733l-.01 1.34 9.946 5.745v-1.351zm.926-2.489v1.35l8.83 5.107v-1.351zm-6.989-4.032l-.01 1.351 4.605 2.66v-1.352zm2.031 4.191l2.192 1.266v1.351l-2.191-1.266zm.373-8.829v1.35l12.148 7.011v-1.35zm6.617 6.829v1.351l14.722 8.5v-1.35zm8.83 8.117l-.012 1.351 9.936 5.734.01-1.351zm-8.798-17.148l-.011 1.35 13.063 7.543.01-1.35zm9.542 11.553v1.34l11.957 6.915.01-1.351zm-13.755-20.01l-.01 1.34 16.19 9.35.01-1.34zm10.638 15.191v1.35l19.5 11.256.01-1.351zm-4.213-8.468v1.35l21.712 12.532v-1.34zm13.787 10.978v1.351l13.436 7.755v-1.35zm-10.085-14.797l-.01 1.34 17.85 10.308v-1.35zm19.319 11.148l-.011 1.351 7.319 4.224v-1.351zm-10.319-3.011v1.352l26.127 15.084v-1.35zm21.967 3.33v1.352l6.713 3.872.01-1.351zm6.925 13.351v1.351l2.947 1.702v-1.35zm-13.276 1.383v1.351l6.075 3.51v-1.35zm-9.702 9.478v1.351l5.883 3.394.011-1.351zm3.054-4.276v1.351l12.69 7.34.011-1.35zm-13.808-4.946v1.34l16.744 9.67v-1.351zm8.116-1.352l-.01 1.351 18.584 10.723.01-1.34zm6.808.915v1.351l9.756 5.638v-1.35zm7.745-1.553v1.351l3.872 2.234v-1.351zm-4.776-5.776v1.35l15.095 8.713v-1.35zm6.606-2.149l-.01 1.35 14.03 8.096.011-1.34zm13.552-1.298l-.01 1.351 4.83 2.787.01-1.35zm-4.489-2.585v1.351l2.83 1.628v-1.34zm3.83 4.915v1.35l2.99 1.724v-1.34zm-26.116-11.851v1.351l8.787 5.074v-1.35zm4.617-.564l-.011 1.351 8.468 4.883v-1.351zm6.627 7.053v1.351l9.149 5.287.01-1.35zm6.574 21.989v1.35l3.862 2.235.01-1.351zm-10.797 5.829v1.351l8.83 5.106v-1.35zm-.468 2.745v1.35l4.042 2.341.01-1.35zm2.042-4.851v1.351l13.244 7.649v-1.351zm10.862 3.255v1.351l7.733 4.468v-1.35zm.011-3.01v1.35l5.893 3.405v-1.351zm-48.67-27.989l-.01 1.351 3.68 2.117v-1.35zm53.435 36.776v1.35l2.947 1.703v-1.351zm-8.106 1.351l-.01 1.35 3.127 1.798.01-1.35zm2.861-1.373l-.01 1.351 10.861 6.277v-1.351zm3.936 5.298v1.351l8.84 5.106v-1.35z" fill="#45EBA5"></path><path d="M104.251 420.197a5.319 5.319 0 0 0-4.414.16l-1.724.893c-1.297.681-1.436 1.723-.308 2.309a5.41 5.41 0 0 0 4.319-.17l1.723-.894c1.34-.67 1.468-1.702.404-2.298zm-12.137-5.83a5.425 5.425 0 0 0-4.426.17l-1.713.894c-1.308.681-1.446 1.713-.319 2.298a5.319 5.319 0 0 0 4.415-.16l1.723-.893c1.298-.681 1.447-1.713.32-2.309z" fill="#0E0638"></path><path d="M98.603 369.327c6.872 16.03 7.446 35.009 3.968 51.69-.745 3.552-6.745 2.042-6-1.49 3.308-15.734 2.5-33.605-3.979-48.711-1.446-3.372 4.575-4.83 6.01-1.49z" fill="url(#S)"></path><path d="M88.412 393.155c.191-6.467-2.224-12.978-4.436-19.233a2.128 2.128 0 0 1 2.191-2.734h3.34c2.458 7.138 5.32 14.5 5.096 21.967-.224 7.468-2.606 14.947-4.18 22.18-.756 3.554-6.767 2.043-6-1.489 1.467-6.744 3.786-13.797 3.989-20.69z" fill="url(#T)"></path><path d="M126.176 347.668c2.468-.17 2.362 3.404-.096 3.574-4.627.33-9.414 1.01-14.063 1.064l.245-3.596c4.606-.064 9.319-.712 13.914-1.042z" fill="#E2AF4B"></path><path d="M85.89 362.2c2.979-22.68 2.745-23.745 5.734-24.394 2.99-.648 5.213 1.426 6.574 3.894 1.866 1.191 3.72 2.39 5.564 3.596 2.202 1.414 4.468 3.436 7.33 3.446h1.17l-.245 3.596h-1.68c-3.724-.075-7.447-2.606-10.639-5 .575 8.99-2.414 10.042-2.414 15.457 0 3.66 1.808 6.032 3.968 13.68 2.35 8.308-16.68-.468-17.691-3.808-1.256-4.053 2.042-8.287 2.33-10.468z" fill="url(#U)"></path><path d="M91.667 334.03c0 1.745.085 3.49.117 5.245 0 1.202 3.266 1.202 3.191 0 0-1.756-.085-3.5-.117-5.245 0-1.202-3.266-1.202-3.191 0z" fill="#E2AF4B"></path><path d="M93.103 335.275a1.064 1.064 0 0 1-.766-.33c-1.415-1.543-1.362-4.617-.415-6.755.617-1.404 1.17-2.043 3.638-2.128.617 0 2.33-.149 2.968.607l.532.234v4.393a4.255 4.255 0 0 1-4.383 3.979h-1.574z" fill="#E2AF4B"></path><path d="M97.667 329.86a8.66 8.66 0 0 0-2.277 1.766c-.49.66-.691 1.479-1.138 2.127a1.766 1.766 0 0 1-2.075.862c-1.468-.723-3.404-5.468-1.648-8.372 1.234-2.032 6.808-1.723 8.212-.532 1.404 1.192.074 3.362-1.074 4.149z" fill="#301108"></path><path d="M94.773 331.307c0 .691.34 1.255.755 1.255s.756-.564.756-1.255a2.798 2.798 0 0 0-.756-1.266c-.415 0-.755.564-.755 1.266zm.968 8.883c.787-.416.692-1.139-.223-1.607l-1.139-.596a3.819 3.819 0 0 0-3.085-.117c-.787.415-.68 1.139.224 1.607l1.138.595c.965.477 2.087.52 3.085.117z" fill="#E2AF4B"></path><path d="M88.667 331.902c-1.415.65-3.128 1.064-3.808 2.405-.575 1.063-.224 2.35-.575 3.489-.521 1.702-2.447 2.734-3.393 4.255a4.574 4.574 0 0 0 1.66 6.096 6.383 6.383 0 0 0 7.03-.48 5.372 5.372 0 0 0 1.48-6.318c-.415-.894-1.064-1.692-1.469-2.606a2.585 2.585 0 0 1 .213-2.777c.372-.404.936-.68 1.138-1.18.266-.67-.276-1.384-.212-2.128.063-.745 1.702-2.032.904-2.521-.798-.49-2.277 1.51-2.968 1.765z" fill="#301108"></path><path d="M336.817 494.47l-106.975-61.763a5.883 5.883 0 0 0-5.319 0l-38.498 22.138a1.851 1.851 0 0 0-1.064 1.531v46.68a1.84 1.84 0 0 0 1.064 1.531l106.996 61.775a5.968 5.968 0 0 0 5.319 0l38.488-22.138a1.872 1.872 0 0 0 1.064-1.532v-46.69a1.872 1.872 0 0 0-1.075-1.531z" fill="url(#V)"></path><path d="M336.817 497.535c1.458-.84 1.458-2.224 0-3.064l-106.975-61.764a5.883 5.883 0 0 0-5.319 0l-38.498 22.138c-1.457.84-1.457 2.212 0 3.063l106.996 61.753a5.84 5.84 0 0 0 5.319 0l38.477-22.126z" fill="url(#W)"></path><path fill="#4CE9F4" opacity=".1" d="M213.662 450.068l3.532-2.042 92.007 53.125-3.532 2.032z"></path><path fill="#4CE9F4" opacity=".5" d="M214.47 450.068l2.724-1.574 91.199 52.657-2.724 1.575z"></path><path fill="#4CE9F4" opacity=".5" d="M215.28 450.068l1.914-1.106 90.39 52.19-1.915 1.106z"></path><path fill="#4CE9F4" d="M216.077 450.068l1.117-.638 89.582 51.721-1.107.639z"></path><path fill="#D3FFFF" d="M305.67 501.332l.308-.18-88.784-51.265-.309.181z"></path><path fill="#4CEAF5" opacity=".1" d="M215.205 436.633v-71.317l92.422 53.36v71.316z"></path><path fill="#4CEAF5" opacity=".1" d="M216.215 436.047v-68.986l90.412 52.2v68.987z"></path><path fill="#4CEAF5" opacity=".1" d="M305.616 486.503l-88.4-51.03.01-66.668 88.39 51.03z"></path><path fill="url(#X)" opacity=".63" d="M305.616 501.173l-88.4-51.03.01-81.338 88.39 51.03z"></path><path d="M220.8 406.676s1.33-1.755 5.415 1.468c4.766 3.755 6.234 16.946 9.861 19.042 3.628 2.096 4.51-5.042 6.617-3.819 2.106 1.223 2.628 2.936 6.49 5.17 3.86 2.234 14.36-4.553 20.275-1.128 5.915 3.426 9.893 19.617 12 20.83 2.106 1.212 3.404-1.798 5.404-.639 2 1.16 2.989 4.83 5.319 6.202 2.33 1.372 6.382-6.808 8.02-5.893a5.67 5.67 0 0 1 2.234 2.542v27.712l-81.677-47.147.042-24.34z" fill="url(#Y)" opacity=".3" style="mix-blend-mode:screen"></path><path d="M302.478 457.834c-4.17-2.415-7.776-19.723-10.33-21.19-2.552-1.469-5.148 9.244-15.52 3.265-5.979-3.457-10.085-13.446-16.127-16.936-10.585-6.106-9.415 9.213-15.744 5.575-2.713-1.575-4.255-6.915-9.362-9.893-6.382-3.681-9.286 1.35-14.595-7.851v20.212l81.678 47.147v-20.33z" fill="url(#Z)" opacity=".3" style="mix-blend-mode:screen"></path><path d="M220.8 398.677c7.106 4.106 13.723 17.85 18.787 20.765 5.063 2.914 3.68-3.01 8.968 0 5.287 3.01 11.978 18.946 18.743 22.85 6.766 3.904 10.043-7.542 12.894-5.904 2.85 1.638 5.478 20.765 8.51 22.552 3.032 1.787 1.564-3.819 6.787-.808 5.223 3.01 6.946 9.233 6.946 9.233v10.755l-81.677-47.147.042-32.296z" fill="url(#aa)" opacity=".3" style="mix-blend-mode:screen"></path><path d="M292.787 454.036a1.138 1.138 0 0 1-.606-.17 9.574 9.574 0 0 1-2.947-3.351 8.34 8.34 0 0 0-2.415-2.84c-.947-.553-1.723-.128-2.553.319a2.638 2.638 0 0 1-2.851.319c-.809-.468-1.862-3.021-3.191-6.244-2.128-5.256-5.128-12.468-8.809-14.596-3.244-1.872-7.935-.638-12.074.447-3.468.915-6.457 1.702-8.212.68-1.576-.9-3.01-2.03-4.255-3.35a10.074 10.074 0 0 0-2.224-1.862c-.84-.489-1.5.511-2.255 1.66-1 1.51-2.234 3.393-4.361 2.127-1.756-1.01-3.021-4.606-4.351-8.414-1.436-4.074-3.053-8.68-5.51-10.638-2.224-1.745-3.607-2-4.383-1.904-.351.02-.682.173-.926.425l-.128-.095a1.51 1.51 0 0 1 1.064-.5c.798-.096 2.224.149 4.5 1.946 2.5 1.968 4.064 6.383 5.564 10.702 1.33 3.777 2.574 7.34 4.255 8.33 1.99 1.148 3.127-.586 4.138-2.128.766-1.17 1.5-2.277 2.479-1.713a10.404 10.404 0 0 1 2.223 1.84 18.467 18.467 0 0 0 4.255 3.33c1.702.979 4.808.16 8.095-.702 4.17-1.064 8.894-2.33 12.192-.425 3.733 2.127 6.712 9.393 8.882 14.68 1.266 3.064 2.351 5.713 3.117 6.149.879.44 1.935.319 2.691-.309a2.542 2.542 0 0 1 2.713-.319 8.436 8.436 0 0 1 2.468 2.894 9.574 9.574 0 0 0 2.883 3.297c1.245.713 3.053-1.404 4.649-3.276 1.404-1.638 2.606-3.064 3.383-2.606 1 .607 1.79 1.505 2.265 2.574h-.16a5.521 5.521 0 0 0-2.19-2.49c-.66-.382-1.883 1.064-3.192 2.575-1.308 1.51-2.947 3.638-4.223 3.638z" fill="#A9D0E5"></path><path d="M302.435 457.898c-2.372-1.362-4.531-7.447-6.435-12.766-1.437-4.01-2.798-7.808-3.894-8.446-.787-.458-1.596.361-2.734 1.489-2.308 2.32-5.798 5.808-12.765 1.777-3-1.734-5.575-5.15-8.053-8.447-2.479-3.298-5.064-6.744-8.085-8.51-5.904-3.415-8.095-.085-10.032 2.84-1.489 2.245-2.882 4.351-5.702 2.723a11.702 11.702 0 0 1-3.19-3.542 19.552 19.552 0 0 0-6.203-6.383 12.83 12.83 0 0 0-5.989-1.67c-2.84-.223-5.319-.425-8.638-6.212l.15-.086c3.297 5.713 5.595 5.904 8.51 6.139a13.03 13.03 0 0 1 6.052 1.68 19.893 19.893 0 0 1 6.245 6.383 11.702 11.702 0 0 0 3.117 3.5c2.691 1.553 3.989-.404 5.478-2.67 1.99-3 4.255-6.383 10.266-2.904 3.042 1.766 5.627 5.202 8.127 8.51 2.5 3.308 5.032 6.691 8 8.404 6.883 3.968 10.319.521 12.584-1.755 1.139-1.128 2.043-2.032 2.937-1.51 1.148.659 2.457 4.307 3.967 8.51 1.894 5.318 4.043 11.329 6.383 12.658l-.096.288z" fill="#A9D0E5"></path><path d="M302.393 467.43c0-.065-1.766-6.224-6.904-9.181-2.883-1.67-3.66-.66-4.34.234-.532.702-1.064 1.383-2.447.564-1.596-.915-3.064-6.383-4.479-11.702-1.33-4.957-2.702-10.085-4.074-10.872-1.064-.617-2.202.713-3.649 2.394-2.255 2.638-5.074 5.914-9.244 3.51-3.606-2.128-7.127-7.447-10.542-12.67-2.947-4.5-5.734-8.755-8.202-10.18-2.468-1.426-3.532-.809-4.51 0-.98.808-1.905 1.478-4.458 0-2.33-1.34-5.01-5-7.84-8.872-3.33-4.532-7.106-9.68-10.946-11.893l.085-.15c3.872 2.235 7.648 7.394 10.989 11.947 2.83 3.862 5.5 7.5 7.797 8.819 2.298 1.319 3.34.734 4.255 0s1.968-1.532 4.692 0c2.5 1.436 5.319 5.712 8.255 10.234 3.404 5.18 6.914 10.552 10.489 12.616 4.042 2.33 6.819-.893 9.042-3.479 1.425-1.67 2.67-3.106 3.85-2.425 1.426.82 2.756 5.755 4.15 10.968 1.393 5.212 2.861 10.638 4.404 11.574 1.276.734 1.702.18 2.234-.532.68-.894 1.532-2.01 4.553-.277 5.191 3 6.968 9.223 6.978 9.287l-.138.085zm-32.584-59.413a1.713 1.713 0 0 1-.82-.245 3.936 3.936 0 0 1-1.776-3.085c0-.798.415-1.32 1.064-1.32.291.011.574.1.82.256a3.936 3.936 0 0 1 1.776 3.075c-.021.797-.426 1.319-1.064 1.319zm-1.553-4.479c-.543 0-.872.436-.872 1.149a3.723 3.723 0 0 0 1.691 2.936c.221.138.474.219.734.234.543 0 .883-.447.883-1.16a3.755 3.755 0 0 0-1.702-2.936 1.457 1.457 0 0 0-.734-.223z" fill="#A9D0E5"></path><path fill="#A9D0E5" d="M269.203 407.783h1v19.531h-1zm-26.233-8.468a1.649 1.649 0 0 1-.809-.245 3.915 3.915 0 0 1-1.787-3.074c0-.809.415-1.33 1.064-1.33.288.01.567.097.808.255a3.936 3.936 0 0 1 1.777 3.075c-.01.798-.415 1.319-1.053 1.319zm-1.49-4.479c-.542 0-.883.447-.883 1.16a3.787 3.787 0 0 0 1.692 2.936c.221.136.474.213.734.223.542 0 .883-.447.883-1.16a3.755 3.755 0 0 0-1.692-2.935 1.521 1.521 0 0 0-.734-.224z"></path><path fill="#A9D0E5" d="M242.374 399.081h1v24.212h-1zm49.956 27.063a1.606 1.606 0 0 1-.82-.245 3.936 3.936 0 0 1-1.776-3.074c0-.809.404-1.32 1.064-1.32.29.007.573.091.819.245a3.936 3.936 0 0 1 1.776 3.074c-.021.809-.436 1.32-1.064 1.32zm-1.554-4.479c-.542 0-.872.447-.872 1.16a3.755 3.755 0 0 0 1.691 2.936c.22.138.474.215.734.223.543 0 .873-.447.873-1.16a3.755 3.755 0 0 0-1.692-2.936 1.49 1.49 0 0 0-.734-.223z"></path><path fill="#A9D0E5" d="M291.723 425.91h1v10.702h-1zm-11.319-3.064a1.628 1.628 0 0 1-.819-.255 3.936 3.936 0 0 1-1.776-3.075c0-.808.415-1.319 1.064-1.319.289.011.57.095.819.245a3.936 3.936 0 0 1 1.776 3.074c-.021.809-.436 1.33-1.064 1.33zm-1.553-4.49c-.542 0-.872.447-.872 1.16a3.755 3.755 0 0 0 1.691 2.936c.22.139.474.216.734.224.543 0 .873-.447.873-1.16a3.755 3.755 0 0 0-1.692-2.936 1.49 1.49 0 0 0-.734-.223z"></path><path fill="#A9D0E5" d="M279.798 422.601h1v13.819h-1zm-51.934-26.871a1.68 1.68 0 0 1-.809-.245 3.936 3.936 0 0 1-1.776-3.074c0-.809.404-1.33 1.064-1.33.287.01.567.097.808.255a3.936 3.936 0 0 1 1.777 3.075c-.022.787-.426 1.319-1.064 1.319zm-1.543-4.479c-.542 0-.883.436-.883 1.16a3.745 3.745 0 0 0 1.692 2.925c.219.144.472.225.734.234.542 0 .883-.447.883-1.16a3.766 3.766 0 0 0-1.692-2.935c-.22-.14-.473-.22-.734-.234v.01z"></path><path fill="#A9D0E5" d="M227.268 395.485h1v13.829h-1z"></path><path fill="#FBD21A" d="M250.171 408.474l8.798 5.074v5.51l-3.606-2.084-.798 2.063-.798-2.978-3.596-2.085zm30.765 17.031l8.798 5.085v5.5l-3.596-2.074-.798 2.053-.797-2.979-3.607-2.074z"></path><path d="M208.503 529.959c-6.872 3.978-6.872 10.414 0 14.382s18.031 3.968 24.914 0c6.882-3.968 6.872-10.404 0-14.382-6.872-3.979-18.042-3.968-24.914 0z" fill="#00258A" opacity=".3" style="mix-blend-mode:multiply"></path><path d="M237.15 459.919a7.553 7.553 0 0 0-2.127-1.138 11.191 11.191 0 0 0-2.734 0 3.883 3.883 0 0 0-1.83 1.063c-.67.522-2.265 1.511-2.265 1.511l.66 2.277a22.69 22.69 0 0 0 2.499-.628 18.084 18.084 0 0 0 1.734-1.064l2.479-.255c.35 0 .319-.543.106-.724a7.18 7.18 0 0 0-2.128-.287c-.68 0-1.297.107-1.393 0a5.383 5.383 0 0 1 1.35-.808 4.191 4.191 0 0 1 1.724-.107c.404.139 1.383.702 1.585.702.202 0 .607-.308.34-.542z" fill="#E2AF4B"></path><path d="M232.896 462.046c-.97.367-1.981.614-3.011.735a3.68 3.68 0 0 0-1.16.34l.139.468a22.69 22.69 0 0 0 2.5-.628 13.83 13.83 0 0 0 1.532-.915z" fill="#E2AF4B"></path><path fill="#C2CFDC" d="M228.46 460.993l.914 2.724-4.223 3.063-1.99-3.191z"></path><path d="M232.268 462.217c.476.266.974.49 1.49.67.414.096.68-.202.5-.394-.341-.284-.696-.55-1.065-.798 0 0 2.202-.297 2.362-.35.16-.054.606-.086.308-.277-.297-.192-2.127-1.064-2.127-1.064a1.68 1.68 0 0 1 1.117.096 13.5 13.5 0 0 0 1.66.734c.287 0 .542-.34.393-.543a5.574 5.574 0 0 0-3.362-.968 6.255 6.255 0 0 0-2.52 1.351c.328.579.748 1.1 1.244 1.543zm-2.234 53.721c-.606 3.021-1.234 9.319-1.766 12.085a21.808 21.808 0 0 0-.5 6.67 26.871 26.871 0 0 0 1.064 4.085s.979 1.393.17 1.776c-.808.383-1.49-.362-2.276-1.51a39.914 39.914 0 0 0-3.788-3.905c.256-.255.48-.393.586-1.712.106-1.32-1.064-7.223-1.405-9.574-.34-2.351 1.607-7.298 2.032-8.766.426-1.468-.213-3.638-.84-5.83-.628-2.19-.926-9.031-.926-9.031s-1.287-7.617-.308-9.776c.978-2.16 9-1.16 10.18.266 1.181 1.425 1.351 7.084.926 11.138-.426 4.053-2.543 11.074-3.15 14.084z" fill="#E2AF4B"></path><path d="M214.992 527.789l-.192 2.01s.99.096.745.883-1.064.266-1.149-.383a2.213 2.213 0 0 0-1.17-1.34l-2.255-1.17c.301-.607.543-1.24.723-1.894.202-.83-.404-5.755-.638-8.723-.234-2.968 2.415-6.893 3.33-9.308.914-2.415-.383-7.85-.734-12.883-.31-2.724.22-5.479 1.52-7.893l8.043 3.447v5s-.872 4.702-1.734 8.744a44.18 44.18 0 0 1-3.298 8.83c-.564 1.35-2.127 7.531-2.638 9.744a34.84 34.84 0 0 0-.553 4.936z" fill="#E2AF4B"></path><path fill="#FFF" d="M223.12 461.76l.063.095 2.617 1.351.702 2.138-4.212-1.904z"></path><path d="M222.896 535.16a3.787 3.787 0 0 0-1.851 1.852c-.372 1.17.468 2.127.755 3.191.204 1.291.3 2.597.287 3.904l.5-.149a11.404 11.404 0 0 1 .309-3.191c.362-.596 1.266-.575 2.01 0 .745.574 2.873 2.66 4.096 2.66 1.223 0 5.149-3.33 4.957-4.256-.191-.925-5.17-.361-5.17-.361s.979 1.393.17 1.776c-.808.383-1.489-.362-2.276-1.51a39.913 39.913 0 0 0-3.787-3.915zm-11.926-7.371l2.256 1.17c.56.263.985.75 1.17 1.34.117.65.904 1.17 1.15.383.244-.787-.746-.883-.746-.883l.192-2.01s1.223-.479 1.436-.34c.213.138.117 4.34-.745 5.201-1.191 1.192-2.989-.223-3.468-.191-.66.184-1.177.7-1.361 1.361a28.34 28.34 0 0 0-.607 2.128l-.478-.138a8.9 8.9 0 0 0 .319-3.33 5.85 5.85 0 0 1-.65-2.66 5.928 5.928 0 0 1 1.533-2.031z" fill="#1F3D45"></path><path d="M232.896 491.822c.467 2.307.689 4.657.66 7.01.137 5.128-2.192 11.904-2.192 11.904a9.17 9.17 0 0 1-5.65.926c-1.627-.202-10.35-3.83-11.307-6.245 0 0-1.064-9.925-1.064-13.052 0-3.128 2.521-7.043 2.521-7.043s15.489-.074 17.032 6.5z" fill="url(#ab)"></path><path d="M245.033 444.451c.298 0 .596.181.702 1.213.065.626.082 1.255.054 1.883 0 0 .627-.064.84.34.213.405.33.394.553.543.224.149.851.51.862.82.01.308.606.478.521 1-.085.52-.585 1.786-.787 2.637-.202.851-.734 2.628-.734 2.628l-3.01-.383c.104-.48.104-.977 0-1.458a11.702 11.702 0 0 1-1.245-2.585 11.595 11.595 0 0 0-.607-2.287c-.202-.415-.617-1.01-.234-1.149.383-.138.777.15 1.064.65.287.5.458 1.393.734 1.393.277 0 .383-1.064.532-1.532a9.55 9.55 0 0 0 .436-1.925c.043-.66-.042-1.788.32-1.788z" fill="#E2AF4B"></path><path d="M244.13 454.238s-1.065 3.096-1.394 4.117c-.33 1.021-2.298 6.383-2.298 6.383s-3.83.202-5.649.223c-2.303.043-4.6.221-6.883.532a29.69 29.69 0 0 0-2.744-1.861 37.403 37.403 0 0 0-5.851-2.809s-4.255-.766-5.468-.266-1.947 2.404-1.798 4.617c.15 2.213 5.606 11.255 6.223 13.234.617 1.978-1.606 4.467-2.755 6.638a27.818 27.818 0 0 0-2.521 6.808c-.394 2.213.777 9.319.777 9.319a27.467 27.467 0 0 0 9.446 4.542c5.106 1.16 8.425.383 10.138-1.128.547-3.02.694-6.1.436-9.159-.34-2.18-2.362-11.414-2.68-13.127-.32-1.713.659-5.649.85-7.446a8.993 8.993 0 0 0-.33-2.522 24.764 24.764 0 0 0 1.554-.446c3.191-.98 10.765-1.585 11.287-3.405.52-1.819 2.063-8.063 2.382-10.063.199-1.197.327-2.405.383-3.617l-3.106-.564z" fill="url(#ac)"></path><path d="M222.843 466.153a15 15 0 0 1 .276-4.255c.468-1.16.873-1.351 1.394-1.48.521-.127 1.244.14 2.191-1.744a7.51 7.51 0 0 0 .745-3.478c.23-.685.32-1.408.266-2.128-.138-.776-.394-3.66-2.67-4.649a7.968 7.968 0 0 0-6.574.064 5.99 5.99 0 0 0-2.713 5.053c0 2.128 1.18 3.457 1.191 4.915a7.936 7.936 0 0 1-1.744 4.361c-.862 1.117.946 2.702 2.127 3.277a7.18 7.18 0 0 0 5.51.064z" fill="#E2AF4B"></path><path d="M224.46 458.493a28.617 28.617 0 0 1-.064-2.914l-2.638 1.978s.202 5.372-1.34 7.702c-.283.4-.347.915-.17 1.372a7.266 7.266 0 0 0 2.637-.5 15 15 0 0 1 .277-4.255c.468-1.16.872-1.35 1.393-1.478a2.77 2.77 0 0 0 .862-.181 2.574 2.574 0 0 1-.957-1.724z" fill="#E2AF4B"></path><path d="M224.992 465.653c-.65-4.255-2.064-7.287-.575-8.798l.351-.521s.202.585.67.457c.245-.063.554-1.35.83-2.074.064-.18.16-.404.277-.66a22.637 22.637 0 0 1-1.883 1.756l-.117-.139a14.5 14.5 0 0 0 2.978-3.372 13.904 13.904 0 0 1-2.553 2.521c-.978.554-2.127 1.181-1.712 4.064.34 2.277 1.68 6.085 1.595 8.649a4.532 4.532 0 0 0 .139-1.883z" fill="#301108"></path><path d="M226.672 448.579c-.893-1.064-2.425-2.266-5.925-1.894a5.744 5.744 0 0 0-3.734 2.394c-.755 1.064-1.447 2.532-1.266 5.521.181 2.99 0 5.51-1.915 7.446a5.947 5.947 0 0 0-.617 5.936 5.447 5.447 0 0 1 .096-3.882 5.713 5.713 0 0 0 .34 4.5c.198.223.436.407.703.542a21.052 21.052 0 0 0 6.52 2.223 4.319 4.319 0 0 0 2.128-1.063 6.99 6.99 0 0 1-.84.882 5.67 5.67 0 0 0 2.638-3.33 9.383 9.383 0 0 1-.617 2.065 7.67 7.67 0 0 0 1.064-2.905 13.18 13.18 0 0 0-.585-3.414c-.67-3.192-1.426-5.479-.192-6.724l.351-.52s.202.584.67.457c.245-.064.554-1.351.83-2.075.064-.18.16-.404.277-.66 2.925-2.489.074-5.5.074-5.5z" fill="#301108"></path><path d="M224.694 458.674c-.085.139-1.064.224-.905-1.468.16-1.691 1.298-2.127 1.266-.84a9.106 9.106 0 0 1-.361 2.308zm-3.947-11.989a5.744 5.744 0 0 0-3.734 2.394c-.755 1.064-1.447 2.532-1.266 5.521 0 .585.053 1.149.053 1.702.145.436.262.88.351 1.33a17.297 17.297 0 0 1-.287 3.936c.267-.845.45-1.715.543-2.596a19.84 19.84 0 0 1-.458 4.585c.724-1.245 1.373-4.255 1.224-8.383a8.861 8.861 0 0 1 3.627-7.446 5.383 5.383 0 0 1 3.798-.692 7.957 7.957 0 0 0-3.851-.35z" fill="#301108"></path><path d="M219.8 450.76c-.16.153-.306.32-.436.5a5.649 5.649 0 0 0-.787 1.574c-.115.375-.196.76-.245 1.149-.027.44-.027.88 0 1.32 0 .925.053 1.914.053 2.914.04 1.813-.16 3.623-.595 5.383a7.319 7.319 0 0 1-.692 1.638 6.468 6.468 0 0 1-.383.542c.134-.18.259-.369.373-.563a7.532 7.532 0 0 0 .638-1.66c.199-.814.33-1.643.393-2.479.086-.914.107-1.893.117-2.861.011-.968 0-1.958 0-2.883a10.85 10.85 0 0 1 0-1.33c.049-.399.142-.791.277-1.17.19-.568.474-1.1.84-1.574.133-.18.283-.348.447-.5z" opacity=".5" fill="#301108"></path><path d="M224.268 448.568c-.437.019-.866.12-1.266.298-.413.171-.8.4-1.149.681-.4.305-.758.663-1.063 1.064a9.574 9.574 0 0 0-1.33 2.574c-.15.411-.278.83-.383 1.255.078-.438.181-.871.308-1.297a8.51 8.51 0 0 1 1.288-2.617 5.798 5.798 0 0 1 1.063-1.117 4.47 4.47 0 0 1 1.202-.65 3.191 3.191 0 0 1 1.33-.19z" fill="#301108"></path><path fill="#FBD21A" d="M324.562 487.407l-1.074-.627 80.976-44.967 1.138.596zm-2.415-1.415l-1.074-.617 80.976-44.966 1.138.585z"></path></g></svg> 